<!DOCTYPE svg PUBLIC "-//W3C//DTD SVG 1.1//EN" "http://www.w3.org/Graphics/SVG/1.1/DTD/svg11.dtd">
<!-- Uploaded to: SVG Repo, www.svgrepo.com, Transformed by: SVG Repo Mixer Tools -->
<svg fill="#8ECEB3" width="800px" height="800px" viewBox="0 0 512 512" id="_47_Gallary" data-name="47 Gallary" xmlns="http://www.w3.org/2000/svg" stroke="#8ECEB3">
<g id="SVGRepo_bgCarrier" stroke-width="0"/>
<g id="SVGRepo_tracerCarrier" stroke-linecap="round" stroke-linejoin="round"/>
<g id="SVGRepo_iconCarrier"> <g id="Group_124" data-name="Group 124"> <g id="Group_123" data-name="Group 123"> <path id="Path_60" data-name="Path 60" d="M480,0H224a31.981,31.981,0,0,0-32,32V288a31.981,31.981,0,0,0,32,32H480a31.981,31.981,0,0,0,32-32V32A31.981,31.981,0,0,0,480,0ZM448,256H256V64H448ZM256,448H64V256h64V192H32A31.981,31.981,0,0,0,0,224V480a31.981,31.981,0,0,0,32,32H288a31.981,31.981,0,0,0,32-32V384H256Z" fill-rule="evenodd"/> </g> </g> </g>
</svg>