<?xml version="1.0" standalone="no"?>
<!DOCTYPE svg PUBLIC "-//W3C//DTD SVG 20010904//EN"
 "http://www.w3.org/TR/2001/REC-SVG-20010904/DTD/svg10.dtd">
<svg version="1.0" xmlns="http://www.w3.org/2000/svg"
 width="874.000000pt" height="872.000000pt" viewBox="0 0 874.000000 872.000000"
 preserveAspectRatio="xMidYMid meet">

<g transform="translate(0.000000,872.000000) scale(0.100000,-0.100000)"
fill="#000000" stroke="none">
<path d="M4413 6925 c-24 -23 -43 -52 -43 -64 0 -12 -4 -21 -9 -21 -19 0 -39
-196 -22 -213 6 -6 11 -26 11 -44 0 -26 4 -33 20 -33 16 0 20 7 20 35 0 19 5
35 10 35 6 0 10 20 10 44 0 25 5 48 10 51 6 3 10 15 10 26 0 28 29 23 36 -7 7
-27 -1 -161 -12 -201 -9 -31 11 -29 44 4 26 26 27 31 26 128 0 56 -8 132 -17
172 -9 40 -17 86 -17 102 0 44 -26 39 -77 -14z"/>
<path d="M4160 6906 c0 -26 -5 -46 -12 -49 -10 -4 -9 -8 2 -16 10 -7 11 -11 3
-11 -7 0 -13 -11 -13 -24 0 -13 -5 -26 -11 -28 -16 -5 -18 -180 -1 -185 6 -3
12 -13 12 -24 0 -10 4 -19 8 -19 5 0 9 14 9 30 0 17 -4 30 -9 30 -4 0 -8 34
-8 75 0 43 4 75 10 75 6 0 10 7 10 15 0 8 5 15 10 15 6 0 10 7 10 15 0 8 5 15
10 15 6 0 10 -13 10 -30 0 -16 5 -30 10 -30 6 0 10 -17 10 -39 0 -21 3 -59 6
-85 6 -41 8 -44 20 -29 16 22 19 208 4 218 -5 3 -10 15 -10 26 0 10 -4 19 -10
19 -5 0 -10 9 -10 20 0 13 -7 20 -20 20 -13 0 -20 7 -20 20 0 11 -4 20 -10 20
-5 0 -10 -20 -10 -44z"/>
<path d="M4920 6910 c0 -11 -4 -20 -8 -20 -5 0 -14 -16 -22 -35 -8 -19 -17
-35 -21 -35 -4 0 -11 -9 -14 -20 -3 -11 -12 -26 -18 -32 -27 -29 -67 -99 -67
-118 0 -11 -4 -20 -10 -20 -6 0 -10 -30 -10 -70 0 -57 4 -75 20 -92 l20 -22 0
52 c0 29 5 52 10 52 6 0 10 10 10 23 0 13 11 46 25 74 52 104 76 90 51 -29
-26 -128 -28 -148 -14 -148 15 0 48 35 48 50 0 6 5 10 10 10 6 0 10 8 10 18 0
10 9 24 20 32 15 10 20 26 20 57 0 23 5 45 10 48 6 3 10 33 10 65 0 32 -4 62
-10 65 -5 3 -10 19 -10 34 0 15 -6 39 -12 54 -15 32 -48 37 -48 7z"/>
<path d="M2918 6904 c-5 -4 -8 -19 -8 -34 0 -15 -9 -53 -20 -86 -11 -32 -20
-74 -20 -91 0 -18 -4 -33 -10 -33 -6 0 -10 -28 -10 -65 0 -37 4 -65 10 -65 6
0 10 -7 10 -15 0 -20 47 -71 57 -62 4 4 1 22 -5 40 -20 56 -10 196 15 204 14
5 43 -90 43 -142 0 -20 6 -43 14 -51 19 -18 26 -18 26 1 0 8 5 15 10 15 6 0
10 26 10 59 0 38 4 61 13 64 10 4 10 6 0 6 -9 1 -13 19 -13 56 0 30 -4 55 -10
55 -5 0 -10 9 -10 20 0 11 -4 20 -10 20 -5 0 -10 6 -10 14 0 19 -73 99 -82 90z"/>
<path d="M5873 6885 c-13 -13 -23 -33 -23 -45 0 -11 -4 -20 -8 -20 -22 0 -41
-164 -23 -198 5 -9 15 -38 23 -64 7 -27 16 -48 20 -48 4 0 8 -7 8 -15 0 -8 5
-15 10 -15 6 0 10 24 10 54 0 34 5 56 13 59 9 4 8 8 -3 17 -11 9 -12 13 -2 17
6 2 12 20 12 39 0 46 11 43 34 -8 13 -29 19 -69 20 -125 1 -91 12 -104 39 -48
23 48 21 104 -4 173 -12 31 -23 67 -26 80 -3 12 -9 22 -14 22 -5 0 -9 7 -9 15
0 8 -5 25 -12 38 -24 48 -28 57 -28 77 0 26 -10 25 -37 -5z"/>
<path d="M5580 6828 c0 -18 -7 -58 -15 -88 -8 -30 -15 -69 -15 -87 0 -17 -4
-35 -10 -38 -5 -3 -10 -30 -10 -60 0 -60 27 -131 59 -157 20 -17 21 -17 21 0
0 10 -5 44 -11 75 -14 66 -4 167 15 167 18 0 46 -76 46 -122 0 -20 5 -40 10
-43 6 -3 10 -17 10 -31 0 -13 5 -24 10 -24 6 0 10 9 10 20 0 11 5 20 10 20 6
0 10 17 10 38 0 20 5 53 10 72 7 23 7 36 0 38 -5 2 -10 24 -10 48 0 24 -4 44
-10 44 -5 0 -10 9 -10 20 0 11 -4 20 -10 20 -5 0 -10 7 -10 15 0 17 -55 82
-82 96 -16 8 -18 5 -18 -23z"/>
<path d="M5410 6770 c0 -5 -5 -10 -10 -10 -13 0 -80 -66 -80 -77 0 -5 -9 -15
-20 -23 -11 -8 -20 -22 -20 -31 0 -10 -3 -19 -8 -21 -12 -5 -52 -131 -52 -163
0 -16 6 -51 13 -78 l12 -48 28 43 c15 23 27 50 27 60 0 10 5 18 10 18 6 0 10
16 10 35 0 19 5 35 10 35 6 0 10 9 10 20 0 13 7 20 20 20 17 0 20 -7 20 -44 0
-53 -20 -146 -32 -146 -4 0 -8 -11 -8 -25 0 -14 -4 -25 -10 -25 -5 0 -10 -9
-10 -20 0 -29 14 -25 57 18 57 55 63 84 63 290 0 155 -2 182 -15 182 -8 0 -15
-4 -15 -10z"/>
<path d="M3118 6694 c-3 -3 -3 -20 2 -37 4 -18 13 -81 19 -142 13 -116 30
-195 43 -195 4 0 8 -5 8 -10 0 -20 71 -80 94 -80 13 0 5 32 -14 52 -11 12 -20
30 -20 40 0 10 -4 18 -10 18 -5 0 -10 14 -10 30 0 17 -4 30 -10 30 -5 0 -10
23 -10 50 0 28 3 50 6 50 11 0 34 -29 34 -44 0 -9 4 -16 8 -16 5 0 17 -18 27
-40 10 -22 21 -40 24 -40 3 0 12 -14 20 -31 12 -28 15 -29 24 -14 16 30 1 126
-31 197 -34 75 -75 120 -144 161 -50 29 -52 30 -60 21z"/>
<path d="M3697 6638 c-2 -29 -12 -78 -22 -108 -20 -60 -32 -199 -18 -209 5 -3
18 -19 30 -34 l22 -28 -2 110 c-1 75 2 114 10 122 10 10 14 8 18 -7 4 -10 11
-27 16 -36 5 -10 9 -29 9 -43 0 -32 22 -105 32 -105 5 0 8 9 8 19 0 11 5 21
11 23 14 5 13 202 -1 206 -5 2 -10 15 -10 28 0 13 -4 24 -10 24 -5 0 -10 5
-10 10 0 12 -60 80 -71 80 -4 0 -9 -24 -12 -52z"/>
<path d="M4602 6625 c-12 -14 -22 -32 -22 -40 0 -8 -8 -15 -19 -15 -15 0 -19
-12 -26 -82 -4 -46 -7 -90 -6 -98 6 -71 14 -120 22 -120 5 0 9 -9 9 -20 0 -11
4 -20 8 -20 5 0 14 -10 20 -22 10 -22 11 -21 11 9 1 17 6 35 11 38 6 3 10 42
10 85 0 43 4 81 8 84 32 20 54 -72 45 -186 -3 -38 -3 -68 1 -68 15 0 56 50 56
70 0 11 5 20 10 20 6 0 10 14 10 30 0 17 -4 30 -10 30 -5 0 -10 16 -10 35 0
20 -9 55 -20 77 -11 23 -20 48 -20 55 0 7 -7 27 -15 45 -8 18 -19 52 -25 76
-6 23 -14 42 -19 42 -4 0 -17 -11 -29 -25z"/>
<path d="M5136 6638 c-33 -19 -81 -62 -111 -100 -21 -25 -65 -111 -65 -124 0
-8 -4 -14 -10 -14 -6 0 -10 -38 -10 -95 0 -52 3 -95 6 -95 20 0 63 73 130 218
1 1 9 0 18 -4 18 -7 23 -69 6 -79 -5 -3 -10 -15 -10 -26 0 -10 -5 -29 -12 -42
-24 -47 -28 -57 -28 -72 0 -8 -4 -15 -9 -15 -5 0 -11 -9 -14 -20 -8 -33 29
-25 68 15 19 19 35 39 35 45 0 5 5 10 10 10 6 0 10 13 10 29 0 16 5 31 11 33
7 2 12 54 14 148 2 80 7 157 10 173 6 22 4 27 -11 27 -11 0 -27 -6 -38 -12z"/>
<path d="M4022 6565 c-7 -14 -12 -37 -12 -50 0 -14 -4 -25 -10 -25 -6 0 -10
-32 -10 -75 0 -43 4 -75 10 -75 6 0 10 -12 10 -27 0 -34 41 -123 57 -123 6 0
15 -9 18 -20 9 -27 35 -26 35 3 0 12 -5 38 -10 57 -16 51 -21 123 -11 139 8
12 12 12 25 -2 9 -8 16 -23 16 -31 0 -9 5 -16 10 -16 6 0 10 -9 10 -20 0 -11
5 -20 10 -20 6 0 10 -20 10 -45 0 -25 5 -45 10 -45 6 0 10 -13 10 -30 0 -16 5
-30 10 -30 6 0 10 14 10 30 0 17 5 30 10 30 6 0 10 15 10 34 0 19 -4 38 -10
41 -5 3 -10 17 -10 31 0 13 -4 24 -10 24 -5 0 -10 9 -10 20 0 11 -4 20 -10 20
-5 0 -10 9 -10 20 0 11 -4 20 -9 20 -5 0 -11 8 -15 18 -3 9 -24 40 -46 67 -22
28 -40 56 -40 63 0 12 -23 42 -33 42 -2 0 -9 -11 -15 -25z"/>
<path d="M2714 6485 c-7 -19 -14 -41 -14 -50 0 -8 -4 -15 -10 -15 -6 0 -10
-33 -10 -79 0 -44 5 -83 10 -86 6 -3 10 -19 10 -36 0 -16 5 -29 10 -29 6 0 10
-5 10 -10 0 -18 69 -120 81 -120 12 0 8 81 -10 168 -12 65 -7 86 20 71 10 -5
19 -19 19 -29 0 -11 5 -20 10 -20 6 0 10 -13 10 -30 0 -16 5 -30 10 -30 6 0
10 -10 10 -22 0 -12 5 -38 11 -57 7 -20 13 -42 15 -49 3 -11 7 -10 19 2 11 10
15 36 15 90 0 42 -3 76 -7 76 -5 0 -19 25 -33 55 -14 30 -28 55 -32 55 -5 0
-8 7 -8 16 0 9 -8 24 -18 33 -23 22 -72 94 -72 108 0 6 -7 14 -16 17 -11 4
-19 -4 -30 -29z"/>
<path d="M3440 6405 c0 -63 -4 -105 -10 -105 -5 0 -10 -16 -10 -35 0 -19 5
-35 10 -35 6 0 10 -20 10 -43 0 -54 21 -97 63 -133 26 -22 33 -24 35 -11 2 9
-4 29 -12 45 -20 39 -49 169 -42 187 3 8 11 15 18 15 16 0 48 -54 48 -81 0
-10 5 -19 10 -19 6 0 10 -9 10 -19 0 -11 5 -23 10 -26 6 -3 10 -14 10 -25 0
-15 18 -30 36 -30 2 0 4 41 4 90 0 53 -4 90 -10 90 -5 0 -10 16 -10 35 0 19
-4 35 -9 35 -5 0 -15 15 -22 33 -15 34 -114 137 -134 137 -3 0 -5 -47 -5 -105z"/>
<path d="M6097 6495 c-9 -7 -17 -20 -17 -29 0 -9 -4 -16 -10 -16 -5 0 -10 -7
-10 -15 0 -8 -4 -15 -10 -15 -5 0 -10 -9 -10 -20 0 -11 -3 -20 -7 -20 -15 0
-103 -151 -103 -175 0 -8 -4 -15 -10 -15 -16 0 -11 -72 8 -109 21 -43 42 -52
42 -17 0 52 42 182 65 198 20 15 25 8 25 -32 0 -22 -4 -40 -10 -40 -6 0 -10
-28 -10 -65 0 -36 4 -65 8 -65 13 0 52 36 52 47 0 5 8 18 18 29 60 65 64 301
7 360 -8 9 -16 8 -28 -1z"/>
<path d="M4312 6342 c-2 -42 -7 -94 -13 -115 -5 -20 -10 -77 -10 -126 0 -99
22 -164 61 -176 11 -3 20 -11 20 -16 0 -5 5 -9 10 -9 6 0 10 9 10 20 0 11 -4
20 -10 20 -5 0 -10 18 -10 40 0 22 -4 40 -10 40 -6 0 -10 38 -10 95 0 52 2 95
5 95 18 0 53 -52 57 -86 9 -66 42 -164 55 -164 19 0 33 67 33 158 0 74 -4 92
-34 157 -38 83 -93 145 -128 145 -22 0 -23 -4 -26 -78z"/>
<path d="M5830 6392 c0 -7 -7 -12 -15 -12 -20 0 -95 -69 -95 -87 0 -7 -4 -13
-10 -13 -5 0 -10 -7 -10 -15 0 -8 -4 -15 -9 -15 -5 0 -11 -10 -14 -22 -28
-118 -33 -154 -26 -187 5 -20 9 -51 9 -68 0 -26 4 -33 20 -33 16 0 20 7 20 30
0 17 5 30 10 30 6 0 10 9 10 20 0 11 5 20 10 20 6 0 10 12 10 28 0 15 7 36 15
46 8 11 15 29 16 40 1 18 2 18 9 -4 15 -46 10 -115 -11 -170 -33 -86 -33 -90
-14 -90 30 0 81 62 99 121 13 41 16 73 12 115 -4 33 -10 105 -14 161 -4 56
-10 105 -14 109 -5 4 -8 2 -8 -4z"/>
<path d="M2980 6311 c0 -6 5 -13 10 -16 6 -3 10 -42 10 -86 0 -46 4 -79 10
-79 6 0 10 -25 10 -55 0 -30 5 -55 10 -55 6 0 10 -13 10 -30 0 -16 4 -30 9
-30 5 0 13 -9 16 -21 4 -11 25 -34 48 -50 53 -38 60 -22 20 47 -37 64 -53 112
-53 157 0 56 16 46 65 -38 16 -27 33 -51 37 -53 4 -2 8 -10 8 -19 0 -19 24
-43 44 -43 9 0 16 8 16 20 0 11 -4 20 -10 20 -6 0 -10 28 -10 65 0 37 -4 65
-10 65 -5 0 -10 9 -10 20 0 11 -4 20 -8 20 -5 0 -14 11 -20 24 -28 61 -129
146 -173 146 -16 0 -29 -4 -29 -9z"/>
<path d="M5510 6300 c0 -11 -4 -20 -10 -20 -5 0 -10 -7 -10 -15 0 -8 -4 -15
-9 -15 -5 0 -14 -13 -21 -30 -7 -16 -16 -30 -20 -30 -4 0 -10 -8 -13 -17 -3
-10 -19 -40 -34 -68 -37 -65 -53 -113 -53 -157 0 -37 21 -88 45 -108 13 -11
15 -6 15 36 0 54 12 109 37 167 18 42 19 43 40 21 13 -13 14 -22 5 -52 -18
-58 -25 -149 -13 -157 11 -6 41 16 41 31 0 3 8 14 18 23 29 27 62 141 62 217
0 60 -7 91 -36 177 -9 24 -44 22 -44 -3z"/>
<path d="M3846 6277 c-14 -19 -26 -41 -26 -50 0 -10 -4 -17 -10 -17 -5 0 -10
-13 -10 -30 0 -16 -4 -30 -10 -30 -6 0 -10 -37 -10 -90 0 -53 4 -90 10 -90 6
0 10 -16 10 -35 0 -19 5 -35 10 -35 6 0 10 -11 10 -25 0 -14 5 -25 10 -25 6 0
10 -9 10 -20 0 -11 -7 -20 -15 -20 -18 0 -147 126 -158 153 -9 24 -37 22 -37
-3 0 -11 -4 -20 -10 -20 -6 0 -10 -38 -10 -95 0 -57 4 -95 10 -95 6 0 10 -13
10 -30 0 -16 4 -30 9 -30 5 0 11 -10 15 -22 6 -26 25 -52 76 -107 19 -21 44
-50 55 -64 28 -38 35 -34 35 18 0 25 -4 45 -10 45 -5 0 -10 14 -10 30 0 17 -4
30 -10 30 -5 0 -10 9 -10 19 0 11 -4 23 -10 26 -5 3 -10 20 -10 37 0 23 4 29
16 24 9 -3 18 -6 20 -6 2 0 4 -7 4 -15 0 -8 5 -15 10 -15 6 0 10 -7 10 -15 0
-8 4 -15 9 -15 5 0 14 -15 21 -32 7 -18 18 -46 25 -63 7 -16 14 -36 17 -44 3
-11 7 -10 21 3 26 26 22 96 -9 161 -15 30 -30 58 -35 61 -12 7 -11 64 1 64 6
0 10 44 10 113 0 61 3 122 6 134 6 21 7 21 24 5 24 -23 32 -61 37 -174 2 -54
6 -98 9 -98 3 0 16 11 29 25 23 22 25 32 25 115 0 53 -4 90 -10 90 -5 0 -10
11 -10 25 0 14 -4 25 -10 25 -5 0 -10 6 -10 13 0 8 -15 45 -34 83 -18 38 -37
84 -40 101 -10 46 -21 48 -50 10z"/>
<path d="M4805 6250 c-8 -16 -15 -36 -15 -45 0 -8 -4 -15 -10 -15 -5 0 -10 -7
-10 -15 0 -8 -4 -15 -10 -15 -5 0 -10 -7 -10 -15 0 -8 -4 -15 -10 -15 -5 0
-10 -7 -10 -15 0 -8 -4 -15 -10 -15 -5 0 -10 -9 -10 -19 0 -11 -4 -21 -10 -23
-5 -1 -22 -34 -36 -73 -28 -75 -29 -152 -3 -207 26 -57 49 -30 49 57 0 30 5
57 10 60 6 3 10 19 10 36 0 16 5 29 10 29 6 0 10 14 10 30 0 23 4 30 20 30 15
0 20 -7 20 -29 0 -17 -4 -32 -9 -35 -12 -8 -14 -186 -3 -186 19 0 21 -32 4
-70 -9 -22 -20 -40 -24 -40 -5 0 -8 -9 -8 -20 0 -11 -4 -20 -9 -20 -5 0 -11
-24 -14 -52 -11 -107 -28 -148 -40 -95 -27 120 -61 245 -77 282 -4 11 -14 41
-21 68 -16 57 -29 61 -29 7 0 -22 5 -40 10 -40 6 0 10 -20 10 -44 0 -25 5 -48
10 -51 10 -6 14 -95 4 -95 -11 0 -34 29 -34 42 0 8 -9 20 -20 28 -11 8 -20 20
-20 26 0 14 -76 94 -90 94 -5 0 -10 5 -10 10 0 6 -7 10 -15 10 -12 0 -15 -15
-15 -75 0 -43 -4 -75 -10 -75 -6 0 -10 -48 -10 -125 0 -77 4 -125 10 -125 6 0
10 -12 10 -26 0 -28 6 -35 64 -79 l39 -30 -6 30 c-3 17 -12 55 -21 85 -17 60
-21 156 -7 164 8 5 41 -68 41 -92 0 -7 5 -12 10 -12 6 0 10 -13 10 -30 0 -16
5 -30 10 -30 6 0 10 -9 10 -20 0 -13 7 -20 20 -20 13 0 20 7 20 20 0 26 23
100 31 100 37 0 49 -329 16 -450 -10 -36 -20 -77 -24 -92 -3 -16 -9 -28 -14
-28 -5 0 -9 -9 -9 -20 0 -11 -4 -20 -10 -20 -5 0 -10 -9 -10 -20 0 -11 -4 -20
-10 -20 -5 0 -10 -9 -10 -20 0 -11 -3 -20 -8 -20 -4 0 -14 -15 -22 -32 -7 -18
-18 -37 -22 -43 -4 -5 -25 -35 -45 -65 -63 -94 -67 -95 -120 -47 -56 50 -63
58 -63 68 0 5 -7 9 -15 9 -8 0 -15 5 -15 10 0 6 7 10 15 10 8 0 15 -4 15 -10
0 -18 18 -11 25 10 7 21 -20 126 -36 146 -5 6 -7 19 -3 27 5 14 9 13 29 -7 12
-12 30 -40 40 -62 9 -21 21 -47 26 -56 5 -10 9 -25 9 -33 0 -19 7 -19 26 -1
16 17 20 136 4 136 -5 0 -10 8 -10 18 0 10 -9 24 -20 32 -11 8 -20 18 -20 22
0 5 -25 34 -55 64 -30 31 -55 60 -55 65 0 5 -9 9 -20 9 -12 0 -20 7 -20 16 0
19 -24 44 -43 44 -39 0 -50 -140 -18 -225 26 -68 45 -105 54 -105 4 0 7 -7 7
-15 0 -8 5 -15 10 -15 6 0 10 -7 10 -15 0 -21 -11 -19 -56 11 -44 29 -101 90
-110 117 -3 9 -10 17 -15 17 -5 0 -9 9 -9 20 0 11 -4 20 -10 20 -5 0 -10 25
-10 55 0 30 -4 55 -10 55 -6 0 -10 42 -10 105 0 58 3 105 6 105 3 0 18 -13 33
-29 15 -16 36 -31 47 -33 17 -3 19 2 15 37 -1 21 -7 50 -12 63 -11 29 -12 103
-1 120 6 9 11 6 19 -10 17 -35 43 -124 43 -147 0 -12 7 -21 16 -21 26 0 44 26
44 64 0 20 5 36 10 36 6 0 10 28 10 65 0 37 -4 65 -10 65 -5 0 -10 18 -10 40
0 22 -4 40 -10 40 -5 0 -10 11 -10 25 0 14 -4 25 -9 25 -5 0 -13 9 -16 21 -10
30 -84 99 -106 99 -17 0 -19 -8 -19 -60 0 -33 -4 -60 -10 -60 -5 0 -10 -25
-10 -55 0 -30 -4 -55 -10 -55 -5 0 -10 -37 -12 -82 -3 -97 -19 -111 -56 -51
l-23 38 6 -35 c3 -19 8 -50 12 -67 3 -18 9 -33 14 -33 4 0 10 -66 13 -147 4
-160 13 -233 27 -233 5 0 9 -13 9 -28 0 -16 8 -34 20 -42 11 -8 20 -17 20 -21
0 -11 92 -99 104 -99 6 0 20 -14 31 -30 11 -17 28 -33 38 -36 9 -3 17 -11 17
-18 0 -7 12 -19 26 -26 14 -8 35 -28 47 -45 12 -16 25 -33 30 -36 11 -8 4
-107 -17 -224 -12 -71 -15 -172 -16 -480 0 -369 -5 -448 -31 -555 -6 -25 -13
-60 -16 -77 -3 -18 -9 -33 -14 -33 -5 0 -9 -13 -9 -30 0 -16 -4 -30 -10 -30
-5 0 -10 -11 -10 -25 0 -14 -4 -25 -10 -25 -5 0 -10 -13 -10 -30 0 -16 -4 -30
-10 -30 -5 0 -10 -8 -10 -18 0 -27 -23 -53 -45 -53 -11 1 -47 6 -80 12 -33 7
-152 12 -265 13 -202 0 -298 -10 -415 -44 -48 -14 -110 -29 -147 -37 -16 -3
-28 -9 -28 -14 0 -5 -11 -9 -25 -9 -14 0 -25 -4 -25 -10 0 -5 -15 -10 -34 -10
-19 0 -36 -3 -38 -7 -1 -5 -25 -19 -53 -32 -96 -46 -190 -94 -195 -100 -10
-12 -50 -31 -65 -31 -8 0 -15 -4 -15 -10 0 -5 -5 -10 -11 -10 -14 0 -39 -25
-39 -39 0 -6 5 -11 10 -11 6 0 10 -7 10 -15 0 -8 5 -15 10 -15 6 0 10 -5 10
-11 0 -6 12 -26 28 -44 15 -17 34 -42 42 -53 18 -27 31 -28 50 -2 16 22 56 27
63 8 3 -7 6 -4 6 7 1 28 20 45 49 45 14 0 36 13 52 30 23 25 34 29 55 24 16
-4 30 -2 34 4 12 20 45 18 49 -3 2 -11 8 -33 14 -48 11 -27 11 -27 25 -7 8 12
13 30 10 41 -3 10 -1 22 4 25 5 3 9 14 9 25 0 15 -7 19 -31 19 -24 0 -30 3
-25 16 3 9 6 18 6 20 0 2 20 4 45 4 25 0 45 4 45 9 0 10 58 26 110 30 8 1 27
12 41 25 15 14 43 28 63 31 32 6 36 5 36 -14 0 -11 9 -30 20 -41 11 -11 20
-33 20 -49 0 -25 -4 -30 -27 -33 -29 -3 -35 -18 -11 -29 7 -3 23 -11 35 -17
14 -7 24 -8 28 -2 12 19 23 10 27 -21 6 -40 -10 -46 -56 -18 -30 17 -42 20
-59 11 -12 -6 -31 -13 -42 -15 -13 -3 -8 -5 11 -6 54 -2 92 -13 113 -32 11
-11 32 -19 46 -19 14 0 25 -4 25 -10 0 -6 -30 -10 -71 -10 -48 0 -75 -5 -85
-14 -19 -20 -18 -26 6 -26 11 0 20 5 20 10 0 6 34 10 81 10 60 0 84 -4 96 -16
14 -13 14 -17 2 -25 -8 -5 -26 -12 -41 -16 -26 -5 -41 -33 -18 -33 6 0 10 -13
10 -30 0 -16 -4 -30 -10 -30 -5 0 -10 -8 -10 -19 0 -19 -16 -25 -101 -37 -35
-6 -36 -5 -31 25 2 19 0 31 -7 31 -6 0 -11 9 -11 20 0 11 5 20 10 20 6 0 10 5
10 10 0 18 -35 11 -50 -10 -8 -11 -22 -20 -32 -20 -10 0 -18 -4 -18 -10 0 -5
-7 -10 -15 -10 -8 0 -15 -4 -15 -10 0 -5 -9 -10 -20 -10 -33 0 -24 40 19 87
22 24 47 43 55 43 22 0 20 20 -1 21 -51 3 -98 -2 -101 -11 -7 -19 -72 -8 -72
12 0 13 26 38 39 38 6 0 11 -4 11 -9 0 -13 32 -23 42 -13 5 5 6 16 2 25 -8 22
-79 23 -100 3 -28 -29 -8 -86 30 -86 9 0 16 -8 16 -20 0 -11 -4 -20 -10 -20
-5 0 -10 -11 -10 -25 0 -14 5 -25 10 -25 6 0 10 -4 10 -10 0 -5 -9 -10 -20
-10 -11 0 -20 -4 -20 -10 0 -16 -47 -11 -54 6 -9 23 -8 24 24 24 28 0 45 20
18 20 -7 0 -31 17 -53 38 -31 29 -39 43 -37 64 2 20 -1 28 -12 28 -9 0 -16 -4
-16 -10 0 -18 -35 -11 -50 10 -8 11 -25 20 -37 20 -13 0 -23 5 -23 12 0 6 -3
9 -6 6 -3 -4 2 -20 10 -37 21 -39 21 -38 -15 -46 -19 -4 -27 -10 -20 -14 17
-11 5 -34 -29 -53 -27 -16 -29 -20 -18 -38 24 -38 83 -15 71 29 -12 47 84 81
110 40 12 -19 -11 -49 -37 -49 -9 0 -16 -4 -16 -10 0 -5 5 -10 10 -10 6 0 10
-8 10 -18 0 -16 -11 -28 -50 -52 -13 -8 -13 -13 2 -37 9 -15 23 -31 30 -34 7
-3 35 -16 61 -29 41 -20 51 -21 71 -11 27 15 97 20 143 10 24 -5 30 -3 26 7
-3 9 -20 14 -43 14 -21 0 -45 3 -54 6 -14 5 -14 8 -1 21 10 10 38 15 80 16 54
2 66 -1 71 -15 6 -19 64 -26 64 -8 0 6 21 10 48 10 52 1 70 11 91 53 8 15 23
27 33 27 10 0 18 5 18 10 0 19 48 11 55 -10 6 -20 35 -28 35 -10 0 6 9 10 19
10 11 0 22 6 24 13 4 9 6 9 6 0 1 -7 8 -13 16 -13 20 0 20 -57 -1 -77 -12 -13
-29 -15 -87 -10 -74 6 -147 -9 -155 -32 -2 -6 -24 -11 -49 -11 -44 0 -73 -16
-73 -42 0 -13 -15 -21 -105 -54 -39 -15 -45 -20 -27 -22 13 -2 31 0 40 4 9 4
41 8 71 9 32 1 56 6 59 13 2 7 9 12 16 12 22 0 66 25 71 40 7 22 75 40 150 40
73 0 81 -11 43 -56 -58 -68 -65 -72 -108 -67 -59 8 -50 -12 14 -32 30 -10 57
-23 59 -29 8 -21 -5 -66 -19 -66 -8 0 -14 -7 -14 -16 0 -22 34 -13 38 10 5 23
26 46 41 46 7 0 11 19 10 49 -3 72 31 101 70 62 16 -16 17 -20 5 -25 -8 -3
-14 -15 -14 -26 0 -24 4 -25 28 -4 14 12 17 24 13 52 -5 31 -11 38 -34 40 -52
6 -32 40 63 105 25 17 47 34 48 39 2 4 13 8 24 8 10 0 26 6 34 14 16 17 19 46
4 46 -5 0 -10 9 -10 20 0 11 5 20 10 20 6 0 10 9 10 20 0 11 4 28 9 38 5 9 21
42 37 72 25 49 65 94 148 167 14 13 34 23 46 23 11 0 20 5 20 10 0 6 14 10 30
10 17 0 30 5 30 10 0 6 48 10 125 10 77 0 125 -4 125 -10 0 -5 14 -10 30 -10
17 0 30 -4 30 -10 0 -5 14 -10 31 -10 23 0 40 -10 69 -40 42 -43 50 -48 50
-26 0 27 18 27 49 0 29 -24 30 -27 16 -48 -14 -21 -13 -28 16 -85 29 -58 34
-63 59 -58 31 7 70 -16 70 -40 0 -24 31 -42 73 -43 41 0 44 -4 22 -26 -24 -24
-18 -34 20 -34 24 0 35 -5 35 -15 0 -8 -6 -15 -12 -15 -7 -1 3 -9 22 -20 24
-13 55 -19 98 -20 60 0 62 -1 62 -26 0 -36 -22 -54 -69 -54 -23 0 -41 -4 -41
-9 0 -5 -12 -14 -27 -19 l-28 -10 32 -1 c17 -1 35 -5 38 -11 3 -5 35 -10 70
-10 35 0 67 5 70 10 8 13 182 13 190 0 4 -6 15 -2 27 10 23 21 98 29 98 10 0
-5 14 -10 30 -10 17 0 30 5 30 10 0 6 6 10 14 10 8 0 17 7 20 16 9 23 8 24
-14 24 -11 0 -20 -4 -20 -10 0 -14 -77 -13 -82 1 -5 14 -201 13 -206 -1 -2 -6
-10 -10 -17 -10 -7 0 -16 -6 -18 -12 -4 -10 -6 -10 -6 0 -1 6 -12 12 -26 12
-18 0 -25 5 -25 20 0 17 7 20 40 20 45 0 66 25 37 42 -10 5 -17 16 -17 25 0
12 -7 14 -37 7 -78 -16 -123 0 -123 44 0 34 -11 52 -31 52 -20 0 -27 34 -9 45
6 3 10 11 10 16 0 6 -5 7 -10 4 -6 -3 -19 -3 -30 0 -16 5 -20 15 -20 46 0 37
2 39 30 39 36 0 37 4 9 33 l-20 22 22 3 c13 2 25 -1 27 -7 2 -7 34 -11 83 -11
72 0 79 -2 79 -20 0 -13 -7 -20 -19 -20 -32 0 -32 -15 0 -29 16 -7 29 -20 29
-29 0 -12 4 -9 13 8 9 19 22 26 50 28 32 3 37 0 37 -17 0 -12 -4 -21 -10 -21
-5 0 -10 -16 -10 -35 0 -19 5 -35 10 -35 6 0 10 5 10 11 0 20 33 39 47 27 10
-8 13 -4 13 18 1 30 30 74 49 74 6 0 11 5 11 10 0 6 7 10 15 10 8 0 15 5 15
10 0 6 9 10 20 10 11 0 20 6 20 14 0 8 6 17 13 19 6 3 -2 6 -18 6 -20 1 -36
-6 -45 -19 -8 -11 -19 -20 -25 -20 -6 0 -17 -9 -25 -20 -21 -29 -90 -29 -90 0
0 11 4 20 9 20 5 0 11 10 14 21 5 17 11 20 31 17 20 -4 26 -1 26 12 0 20 -30
36 -39 21 -3 -5 -23 -12 -43 -16 -21 -4 -42 -13 -49 -21 -17 -21 -66 -18 -78
5 -13 23 2 37 43 39 53 4 106 22 116 42 8 15 6 20 -10 25 -11 3 -20 11 -20 16
0 5 -11 9 -25 9 -26 0 -65 27 -65 45 0 5 -14 21 -30 34 -39 30 -42 71 -5 71
14 0 25 -4 25 -8 0 -14 54 -35 58 -23 5 16 22 14 87 -13 44 -18 63 -32 76 -57
24 -46 24 -49 -11 -49 -17 0 -30 5 -30 13 0 6 -5 4 -11 -6 -6 -10 -9 -20 -7
-21 72 -53 132 -63 158 -26 11 15 26 20 63 20 27 0 58 -5 70 -11 16 -9 22 -9
25 0 5 16 22 14 22 -3 0 -8 5 -16 12 -18 8 -3 4 -12 -10 -26 -12 -12 -22 -26
-22 -31 0 -13 37 -20 76 -14 18 3 39 1 46 -4 7 -6 30 -13 51 -16 42 -7 66 11
108 80 12 21 26 40 31 43 4 3 14 22 22 41 l15 36 -49 29 c-27 16 -50 32 -50
37 0 4 -9 7 -20 7 -11 0 -20 5 -20 10 0 6 -9 10 -20 10 -11 0 -20 5 -20 10 0
6 -9 10 -20 10 -11 0 -20 5 -20 10 0 6 -11 10 -25 10 -14 0 -25 4 -25 8 0 4
-21 14 -47 21 -27 8 -52 17 -58 21 -26 18 -178 60 -295 81 -180 32 -657 24
-694 -12 -6 -5 -19 -9 -30 -9 -11 0 -34 -5 -52 -12 -41 -15 -64 5 -64 56 0 20
-4 36 -10 36 -5 0 -10 8 -10 18 0 9 -9 42 -20 72 -44 116 -82 226 -87 248 -3
12 -9 22 -14 22 -5 0 -9 14 -9 30 0 17 -4 30 -10 30 -5 0 -10 18 -10 40 0 22
-4 40 -10 40 -5 0 -10 16 -10 35 0 19 -4 35 -8 35 -4 0 -13 19 -19 43 -41 158
-63 343 -65 562 -1 126 0 134 38 245 21 63 42 117 46 118 5 2 8 17 8 33 0 16
5 29 10 29 6 0 10 9 10 19 0 11 4 21 8 23 12 5 61 120 104 247 l40 116 0 235
c0 173 3 229 10 213 12 -26 48 -31 48 -7 0 8 7 22 15 31 9 8 19 28 22 44 3 15
14 36 24 45 18 16 19 16 19 -12 0 -16 -7 -54 -16 -84 -26 -90 -27 -100 -15
-100 18 0 81 53 81 68 0 6 5 12 10 12 13 0 13 370 0 390 -6 10 -10 11 -10 3 0
-7 -11 -13 -25 -13 -14 0 -25 -4 -25 -10 0 -5 -7 -10 -15 -10 -21 0 -19 32 4
61 47 61 61 116 61 240 0 66 -4 119 -8 119 -5 0 -17 18 -27 39 -23 52 -41 58
-60 21z m-1005 -3510 c0 -5 9 -10 19 -10 11 0 23 -4 26 -10 3 -5 42 -10 86
-10 43 0 79 -3 79 -6 0 -4 -10 -15 -22 -26 -18 -16 -33 -19 -78 -15 -106 8
-179 40 -166 72 6 17 56 21 56 5z m1350 4 c0 -23 -74 -52 -85 -34 -12 19 16
40 51 40 19 0 34 -3 34 -6z m118 -14 c4 -23 -41 -40 -63 -24 -14 11 -15 15 -4
28 17 19 63 16 67 -4z m-1607 -10 c40 -22 61 -100 27 -100 -8 0 -20 -9 -28
-20 -21 -29 -38 -25 -76 17 -45 49 -46 85 -1 100 44 14 55 15 78 3z m1649 -80
c8 -11 20 -20 28 -20 22 0 62 -47 62 -73 0 -41 -23 -51 -75 -36 -25 7 -45 17
-45 21 0 4 -7 8 -16 8 -14 0 -74 54 -74 67 0 10 30 33 44 33 8 0 18 5 21 10
10 17 40 11 55 -10z m-1736 -76 c9 -23 8 -24 -19 -24 -28 0 -30 5 -12 25 16
19 24 18 31 -1z m156 12 c0 -2 3 -11 6 -20 4 -12 0 -16 -15 -16 -14 0 -21 6
-21 20 0 11 7 20 15 20 8 0 15 -2 15 -4z m1760 -36 c0 -24 -6 -25 -26 -6 -19
20 -18 26 6 26 13 0 20 -7 20 -20z m-385 -30 c3 -5 -3 -10 -14 -10 -12 0 -21
5 -21 10 0 6 6 10 14 10 8 0 18 -4 21 -10z m-1137 -34 c2 -9 1 -24 -2 -32 -5
-14 -8 -14 -21 0 -16 15 -20 38 -8 50 11 10 28 1 31 -18z m-144 -2 c9 -3 16
-15 16 -25 0 -10 5 -19 10 -19 21 0 9 -40 -21 -69 -26 -26 -38 -31 -81 -31
-47 0 -49 1 -37 17 29 38 39 43 73 43 29 0 36 4 36 20 0 11 -4 20 -8 20 -5 0
-19 9 -31 19 -16 14 -18 21 -9 24 19 8 34 8 52 1z m1266 -64 c0 -11 5 -20 10
-20 6 0 10 -8 10 -18 0 -9 10 -25 23 -35 18 -13 22 -24 19 -51 -4 -37 -26 -53
-48 -35 -16 13 -19 59 -4 59 6 0 10 5 10 10 0 6 -9 10 -20 10 -13 0 -22 9 -26
27 -4 15 -13 34 -21 41 -21 21 -15 32 17 32 23 0 30 -4 30 -20z m-1140 -40 c0
-13 -7 -20 -20 -20 -22 0 -23 1 -14 24 9 23 34 20 34 -4z m-56 -45 c3 -9 -3
-20 -14 -27 -11 -7 -20 -21 -20 -30 0 -13 -8 -18 -32 -18 l-31 0 28 24 c15 13
25 29 21 34 -4 6 2 15 11 21 24 14 30 13 37 -4z m-194 -30 c10 -13 10 -19 -5
-35 -25 -27 -65 -27 -65 0 0 43 45 65 70 35z m-493 -191 c-3 -3 -12 -4 -19 -1
-8 3 -5 6 6 6 11 1 17 -2 13 -5z"/>
<path d="M5283 2608 c-32 -15 -29 -28 7 -28 23 0 30 4 30 20 0 22 -5 23 -37 8z"/>
<path d="M5260 6203 c0 -8 -13 -13 -30 -13 -16 0 -30 -3 -30 -8 0 -4 -15 -14
-32 -21 -44 -20 -122 -101 -152 -160 -21 -39 -48 -135 -53 -188 -7 -57 18 -69
53 -27 13 16 28 34 32 40 5 5 18 28 28 50 17 36 56 84 69 84 3 0 5 -13 5 -30
0 -16 -4 -30 -10 -30 -5 0 -10 -13 -10 -30 0 -16 -4 -30 -10 -30 -5 0 -10 -6
-10 -13 0 -7 -18 -40 -39 -73 -22 -32 -36 -63 -31 -67 16 -18 110 23 110 48 0
3 8 15 19 26 22 24 51 106 61 174 26 172 34 215 42 215 4 0 8 8 8 18 0 20 -20
54 -20 35z"/>
<path d="M3334 6132 c-18 -11 -63 -164 -55 -182 5 -8 11 -36 14 -62 6 -47 61
-170 78 -176 5 -2 9 -9 9 -16 0 -11 39 -36 55 -36 3 0 5 23 5 50 0 28 -4 50
-10 50 -6 0 -10 30 -10 70 0 40 4 70 10 70 6 0 10 -6 10 -14 0 -8 3 -16 8 -18
11 -5 50 -126 58 -181 6 -47 7 -48 24 -30 31 32 40 98 23 156 -8 29 -21 59
-29 68 -8 8 -14 20 -14 26 0 5 -11 23 -25 39 -14 16 -25 34 -25 39 0 6 -9 17
-20 25 -11 8 -20 22 -20 32 0 10 -4 18 -10 18 -5 0 -10 7 -10 15 0 8 -3 15 -8
15 -4 0 -12 10 -17 22 -11 24 -25 31 -41 20z"/>
<path d="M2549 6068 c-19 -46 -14 -172 10 -235 18 -50 26 -62 64 -104 9 -10
17 -23 17 -29 0 -5 4 -10 10 -10 5 0 20 -11 34 -25 14 -14 28 -25 31 -25 9 0
5 79 -5 85 -5 3 -10 19 -10 36 0 16 -4 29 -10 29 -5 0 -10 11 -10 25 0 14 -4
25 -10 25 -5 0 -10 7 -10 15 0 21 30 19 47 -2 22 -29 58 -104 73 -153 17 -55
14 -52 34 -44 27 10 17 164 -14 194 -3 3 -23 28 -45 55 -22 28 -65 75 -95 105
-31 30 -59 63 -63 73 -10 27 -33 20 -48 -15z"/>
<path d="M4057 6083 c-3 -5 1 -35 9 -68 7 -33 14 -78 14 -100 0 -22 7 -72 16
-110 9 -39 18 -82 21 -97 3 -16 8 -28 12 -28 3 0 12 -13 19 -30 8 -18 21 -30
33 -30 10 0 19 -4 19 -10 0 -5 9 -10 20 -10 11 0 20 -4 20 -10 0 -5 7 -10 15
-10 21 0 20 3 -20 77 -19 36 -35 71 -35 79 0 8 -4 14 -10 14 -5 0 -10 13 -10
29 0 16 -6 31 -12 33 -9 3 -8 9 4 21 22 22 28 21 28 -3 0 -11 4 -20 9 -20 5 0
13 -9 16 -20 3 -11 12 -26 18 -32 7 -7 24 -32 40 -55 29 -45 34 -48 56 -34 9
6 10 11 3 15 -6 4 -9 13 -6 20 8 21 -14 130 -38 183 -11 26 -34 60 -49 76 -16
15 -29 34 -29 42 0 8 -7 15 -16 15 -9 0 -24 8 -33 18 -27 29 -105 60 -114 45z"/>
<path d="M6185 6050 c-3 -5 -14 -10 -23 -10 -10 0 -24 -9 -32 -20 -8 -11 -20
-20 -28 -20 -16 0 -42 -24 -42 -39 0 -6 -4 -11 -8 -11 -10 0 -44 -56 -58 -98
-17 -47 -26 -119 -19 -142 6 -20 8 -19 28 7 12 15 30 37 39 47 10 11 18 26 18
33 0 7 5 13 10 13 6 0 10 9 10 20 0 11 5 20 10 20 6 0 10 -9 10 -19 0 -11 6
-22 13 -25 10 -5 10 -7 0 -12 -7 -3 -13 -14 -13 -25 0 -10 -4 -19 -10 -19 -5
0 -10 -9 -10 -20 0 -11 -4 -20 -10 -20 -5 0 -10 -7 -10 -15 0 -8 -4 -15 -10
-15 -5 0 -10 -9 -10 -20 0 -13 7 -20 20 -20 11 0 20 4 20 9 0 5 8 12 18 15 29
10 68 94 82 176 6 41 18 103 25 137 11 51 11 64 0 73 -9 8 -15 8 -20 0z"/>
<path d="M2875 5939 c-4 -5 -2 -22 3 -37 6 -15 15 -83 21 -151 13 -138 39
-210 92 -256 37 -31 69 -33 69 -5 0 11 -4 20 -10 20 -5 0 -10 7 -10 15 0 8 -4
15 -10 15 -5 0 -10 9 -10 20 0 11 -3 20 -8 20 -10 0 -32 74 -32 111 0 31 0 32
20 14 11 -10 20 -24 20 -32 0 -7 5 -13 10 -13 6 0 10 -9 10 -20 0 -11 5 -20
10 -20 6 0 10 -7 10 -15 0 -8 13 -29 29 -46 l30 -31 7 37 c10 56 -17 205 -38
205 -5 0 -8 8 -8 18 0 10 -9 24 -20 32 -11 8 -20 20 -20 27 0 6 -9 15 -20 18
-11 3 -20 10 -20 15 0 10 -92 70 -108 70 -6 0 -14 -5 -17 -11z"/>
<path d="M5845 5810 c-3 -11 -12 -26 -18 -32 -7 -7 -30 -36 -52 -63 -21 -28
-47 -57 -57 -66 -10 -9 -18 -22 -18 -29 0 -7 -8 -20 -18 -29 -48 -43 -72 -146
-48 -203 22 -52 46 -50 46 2 0 22 5 40 10 40 6 0 10 9 10 20 0 11 5 20 10 20
6 0 10 11 10 25 0 14 4 25 9 25 5 0 11 9 14 20 3 11 10 20 15 20 20 0 21 -31
2 -86 -22 -62 -26 -124 -9 -124 16 0 119 108 119 125 0 8 5 15 10 15 6 0 10
11 10 25 0 14 5 25 10 25 6 0 10 18 10 40 0 22 5 40 10 40 6 0 10 22 10 49 0
28 -4 53 -10 56 -5 3 -10 22 -10 41 0 55 -51 89 -65 44z"/>
<path d="M5250 5771 c-19 -20 -53 -49 -75 -66 -133 -98 -204 -207 -183 -281 5
-19 11 -34 14 -34 11 0 34 29 34 44 0 8 6 21 13 28 6 7 18 25 26 41 8 15 18
27 23 27 4 0 8 6 8 14 0 12 20 26 36 26 2 0 4 -11 4 -25 0 -14 -4 -25 -10 -25
-5 0 -10 -9 -10 -20 0 -11 -4 -20 -10 -20 -5 0 -10 -11 -10 -25 0 -14 -4 -25
-10 -25 -16 0 -11 -47 6 -54 19 -7 53 10 74 36 8 11 28 33 43 51 35 40 77 124
77 154 0 13 5 23 10 23 6 0 10 32 10 75 0 58 -3 75 -14 75 -8 0 -16 4 -18 9
-1 4 -19 -8 -38 -28z"/>
<path d="M5590 5801 c0 -5 -12 -11 -27 -14 -32 -7 -72 -36 -123 -89 -52 -54
-60 -66 -60 -83 0 -8 -4 -15 -10 -15 -5 0 -10 -9 -10 -20 0 -11 -4 -20 -10
-20 -5 0 -10 -20 -10 -45 0 -25 -4 -45 -10 -45 -17 0 -12 -87 6 -94 19 -7 55
28 82 80 21 41 55 84 66 84 3 0 6 -16 6 -35 0 -19 -4 -35 -10 -35 -5 0 -10 -9
-10 -20 0 -11 -4 -20 -10 -20 -5 0 -10 -4 -10 -10 0 -5 -13 -32 -30 -58 -36
-58 -36 -62 -9 -62 23 0 99 41 99 54 0 5 8 16 18 25 27 24 53 125 73 276 6 50
15 97 19 105 5 9 3 23 -5 33 -13 18 -25 22 -25 8z"/>
<path d="M3175 5720 c-3 -5 -1 -18 5 -29 5 -11 10 -42 10 -70 0 -27 5 -53 10
-56 6 -3 10 -40 10 -81 0 -43 4 -74 10 -74 6 0 10 -13 10 -30 0 -16 5 -30 10
-30 6 0 10 -5 10 -11 0 -7 20 -31 44 -55 33 -33 51 -44 75 -44 28 0 43 13 23
22 -21 9 -91 159 -92 196 0 21 38 -9 51 -40 6 -16 15 -28 20 -28 5 0 9 -7 9
-15 0 -25 46 -66 65 -59 14 6 16 17 11 63 -7 84 -17 131 -27 131 -5 0 -9 9 -9
20 0 11 -4 20 -8 20 -5 0 -14 16 -22 35 -8 19 -18 35 -22 35 -5 0 -25 16 -45
36 -19 20 -55 44 -80 55 -51 22 -59 23 -68 9z"/>
<path d="M6250 5720 c0 -11 -85 -100 -96 -100 -11 0 -109 -108 -124 -137 -8
-15 -19 -31 -23 -34 -12 -9 -19 -112 -9 -128 14 -20 42 -6 42 21 0 13 9 30 20
38 11 8 20 22 20 32 0 10 5 18 10 18 6 0 10 8 10 18 0 9 9 23 20 30 18 11 20
10 20 -8 0 -28 -23 -100 -32 -100 -5 0 -8 -11 -8 -25 0 -14 -4 -25 -10 -25 -5
0 -10 -7 -10 -16 0 -11 6 -14 23 -9 27 9 87 52 105 77 7 9 19 24 27 32 8 8 15
22 15 30 0 9 5 16 10 16 6 0 10 9 10 20 0 11 4 20 9 20 19 0 30 145 16 208 -5
22 -13 32 -26 32 -11 0 -19 -5 -19 -10z"/>
<path d="M2430 5650 c0 -16 5 -30 10 -30 6 0 10 -16 10 -35 0 -19 5 -35 10
-35 6 0 10 -22 10 -50 0 -27 5 -50 10 -50 6 0 10 -11 10 -25 0 -60 77 -185
114 -185 8 0 16 -4 18 -9 5 -15 60 -18 65 -3 3 6 -2 12 -11 12 -9 0 -16 8 -16
20 0 11 -4 20 -8 20 -5 0 -15 12 -23 28 -8 15 -16 29 -20 32 -6 6 -39 76 -39
84 0 3 5 6 10 6 12 0 60 -45 60 -56 0 -3 13 -18 28 -32 16 -15 31 -35 35 -44
9 -26 37 -11 37 20 0 38 -23 132 -32 132 -5 0 -8 10 -8 23 0 12 -9 29 -20 37
-11 8 -20 20 -20 28 0 15 -65 82 -80 82 -5 0 -10 5 -10 10 0 6 -9 10 -20 10
-11 0 -20 3 -20 8 0 7 -69 32 -90 32 -5 0 -10 -13 -10 -30z"/>
<path d="M3463 5544 c-3 -9 -2 -19 3 -23 10 -6 28 -47 64 -146 36 -96 44 -115
52 -115 5 0 8 -7 8 -15 0 -20 44 -65 64 -65 8 0 16 -5 18 -11 2 -6 21 -9 42
-7 l39 3 -21 25 c-12 14 -35 41 -52 60 -16 19 -30 41 -30 48 0 6 -4 12 -10 12
-5 0 -10 9 -10 20 0 11 3 20 7 20 4 0 31 -25 60 -55 57 -59 103 -75 103 -35 0
11 -4 20 -10 20 -5 0 -10 14 -10 30 0 17 -3 30 -8 30 -4 0 -14 15 -22 33 -7
17 -19 38 -24 45 -37 44 -79 81 -106 92 -16 7 -30 16 -30 21 0 5 -9 9 -19 9
-11 0 -23 5 -26 10 -10 17 -75 12 -82 -6z"/>
<path d="M2786 5512 c-6 -16 0 -50 20 -134 3 -16 10 -28 15 -28 5 0 9 -7 9
-15 0 -8 5 -15 10 -15 6 0 10 -7 10 -15 0 -8 5 -15 10 -15 6 0 10 -5 10 -11 0
-14 25 -39 39 -39 6 0 11 -4 11 -10 0 -5 5 -10 10 -10 6 0 20 -9 32 -20 12
-11 30 -20 40 -20 10 0 18 -4 18 -10 0 -5 20 -10 45 -10 38 0 43 2 38 18 -4 9
-19 29 -35 44 -15 14 -28 33 -28 41 0 9 -8 18 -17 21 -16 5 -49 56 -36 56 21
0 65 -34 133 -102 31 -32 60 -58 63 -58 4 0 7 17 7 39 0 48 -61 145 -102 162
-15 6 -28 15 -28 20 0 5 -9 9 -20 9 -11 0 -20 5 -20 10 0 6 -9 10 -20 10 -11
0 -20 5 -20 10 0 6 -11 10 -25 10 -14 0 -25 5 -25 10 0 6 -9 10 -20 10 -11 0
-20 5 -20 10 0 6 -9 10 -20 10 -11 0 -20 4 -20 8 0 7 -43 32 -55 32 -2 0 -6
-8 -9 -18z"/>
<path d="M4295 5328 c-24 -58 -30 -155 -15 -219 12 -53 48 -131 63 -137 4 -2
7 -8 7 -14 0 -6 17 -26 37 -44 36 -33 38 -34 45 -14 4 12 3 40 -3 63 -15 56
-23 127 -14 127 22 0 85 -141 85 -192 0 -10 4 -18 8 -18 14 0 32 23 32 42 0
10 5 18 10 18 6 0 10 25 10 55 0 30 -4 55 -10 55 -5 0 -10 9 -10 20 0 11 -3
20 -7 20 -5 0 -16 17 -26 39 -10 21 -30 51 -43 66 -13 15 -24 32 -24 36 0 4
-11 19 -25 33 -14 14 -25 32 -25 41 0 8 -4 15 -10 15 -5 0 -10 5 -10 11 0 15
-26 39 -43 39 -8 0 -23 -19 -32 -42z"/>
<path d="M4912 5350 c-6 -11 -12 -27 -12 -35 0 -8 -4 -15 -8 -15 -5 0 -14 -12
-21 -27 -7 -16 -28 -51 -47 -80 -19 -28 -34 -59 -34 -67 0 -9 -4 -16 -10 -16
-6 0 -10 -31 -10 -74 0 -55 4 -77 16 -87 14 -11 18 -10 30 6 8 10 14 35 14 54
1 20 9 51 19 70 17 33 19 33 25 13 4 -12 4 -42 1 -66 -4 -24 -4 -54 0 -66 7
-21 7 -20 36 9 16 17 29 38 29 46 0 8 5 15 10 15 6 0 10 9 10 20 0 11 3 20 8
20 10 0 32 73 32 105 0 57 -31 155 -57 183 -15 16 -16 16 -31 -8z"/>
<path d="M5863 5343 c-7 -2 -13 -9 -13 -15 0 -5 -34 -43 -75 -83 -41 -41 -75
-78 -75 -84 0 -6 -4 -11 -9 -11 -5 0 -20 -22 -32 -50 -12 -27 -26 -50 -31 -50
-12 0 -10 -82 3 -119 13 -37 29 -41 29 -7 0 14 5 28 10 31 6 3 10 17 10 31 0
13 5 24 10 24 6 0 10 7 10 15 0 20 57 79 64 66 6 -10 -17 -91 -34 -123 -11
-19 -14 -68 -4 -68 28 0 144 110 144 137 0 7 5 13 10 13 6 0 10 11 10 24 0 13
5 26 11 28 7 2 11 43 12 110 1 85 -2 109 -15 122 -9 9 -18 16 -20 15 -2 0 -9
-3 -15 -6z"/>
<path d="M5084 5286 c-30 -33 -63 -129 -65 -186 0 -43 -22 -146 -32 -156 -4
-4 -7 -15 -7 -23 0 -9 -9 -23 -20 -31 -11 -8 -20 -22 -20 -32 0 -10 -7 -18
-15 -18 -9 0 -18 -7 -21 -15 -3 -8 -19 -21 -35 -29 -29 -15 -30 -14 -36 14
l-5 29 -29 -29 c-16 -15 -29 -33 -29 -39 0 -6 -4 -11 -10 -11 -5 0 -10 -7 -10
-15 0 -8 -4 -15 -9 -15 -5 0 -12 -9 -16 -19 -3 -11 -18 -33 -33 -49 -29 -32
-37 -43 -82 -115 -17 -26 -30 -52 -30 -57 0 -6 -4 -10 -10 -10 -5 0 -10 -13
-10 -30 0 -16 -4 -30 -10 -30 -5 0 -10 -11 -10 -24 0 -14 -4 -28 -10 -31 -5
-3 -10 -22 -10 -41 0 -19 -4 -34 -9 -34 -12 0 -24 -107 -24 -220 0 -90 8 -167
33 -305 6 -33 14 -86 17 -117 2 -32 9 -58 14 -58 5 0 9 -18 9 -40 0 -22 5 -40
10 -40 6 0 10 -13 10 -30 0 -16 5 -30 10 -30 6 0 10 -8 10 -18 0 -10 4 -22 8
-28 4 -5 26 -63 47 -129 22 -66 43 -122 47 -123 5 -2 8 -17 8 -33 0 -16 5 -29
10 -29 6 0 10 -11 10 -25 0 -14 5 -25 10 -25 6 0 10 -13 10 -30 0 -16 5 -30
10 -30 6 0 10 -13 10 -29 0 -34 18 -41 70 -28 19 5 50 11 68 14 17 3 32 9 32
14 0 5 29 9 65 9 37 0 65 4 65 10 0 6 90 10 250 10 160 0 250 -4 250 -10 0 -6
28 -10 65 -10 37 0 65 -4 65 -10 0 -5 20 -10 44 -10 25 0 48 -4 51 -10 3 -5
22 -10 41 -10 19 0 34 -4 34 -10 0 -5 10 -10 22 -10 31 0 133 -33 213 -70 22
-10 55 -24 73 -31 17 -8 32 -17 32 -21 0 -5 9 -8 20 -8 11 0 20 -4 20 -10 0
-5 5 -10 10 -10 6 0 10 9 10 20 0 11 -4 20 -10 20 -5 0 -10 14 -10 30 0 17 -4
30 -10 30 -5 0 -10 5 -10 10 0 6 -8 29 -19 53 -10 23 -24 57 -31 75 -10 25
-18 32 -40 32 -16 0 -35 3 -44 6 -9 3 -24 -5 -37 -20 -23 -27 -53 -34 -64 -16
-3 6 -24 10 -45 10 -22 0 -40 5 -43 13 -3 10 -11 10 -39 0 -50 -18 -65 -16
-84 12 -11 17 -25 25 -45 25 -67 0 -103 39 -102 114 1 34 -4 49 -23 67 -26 24
-30 53 -14 110 8 27 17 39 35 43 14 4 25 13 25 20 0 16 -30 26 -83 26 -21 0
-45 7 -53 15 -9 8 -19 15 -24 15 -16 0 -100 -95 -100 -112 0 -4 -9 -8 -20 -8
-11 0 -20 -4 -20 -10 0 -5 -13 -10 -30 -10 -16 0 -30 -4 -30 -8 0 -4 -21 -14
-47 -21 -27 -8 -55 -18 -63 -21 -50 -24 -92 -40 -124 -45 -32 -6 -39 -3 -71
30 -55 59 -43 124 23 125 31 0 28 29 -5 61 -16 15 -39 40 -53 57 -14 17 -31
32 -38 32 -7 0 -26 14 -44 30 -17 17 -37 30 -44 30 -28 0 -44 -43 -44 -117 0
-71 -1 -73 -20 -61 -11 7 -20 21 -20 30 0 10 -4 18 -10 18 -5 0 -10 9 -10 19
0 11 -4 23 -10 26 -5 3 -10 15 -10 26 0 10 -3 19 -7 19 -8 0 -51 130 -72 218
-23 90 -33 128 -42 150 -5 13 -9 45 -9 72 0 28 -4 50 -10 50 -6 0 -10 43 -10
110 0 67 4 110 10 110 6 0 10 16 10 35 0 19 5 35 10 35 6 0 10 9 10 20 0 11 5
20 10 20 6 0 10 6 10 13 1 16 35 57 49 57 6 0 11 5 11 10 0 6 6 10 13 10 7 0
19 9 27 20 8 11 22 20 32 20 10 0 18 5 18 10 0 6 6 10 14 10 7 0 48 16 90 35
43 19 86 35 96 35 10 0 21 4 24 9 12 20 187 30 344 20 50 -3 114 21 143 53 9
10 21 18 27 18 13 0 92 77 85 84 -5 5 -48 -20 -71 -41 -6 -6 -21 -15 -32 -18
-11 -3 -20 -11 -20 -16 0 -5 -7 -9 -15 -9 -8 0 -15 -4 -15 -10 0 -17 -219 -13
-236 4 -19 19 -19 18 21 80 19 30 35 59 35 65 0 5 5 11 12 13 7 3 9 14 4 32
l-7 28 -19 -23 c-11 -12 -20 -26 -20 -31 0 -20 -89 -96 -150 -129 -36 -18 -66
-37 -68 -41 -2 -5 -19 -8 -38 -8 -19 0 -34 -4 -34 -10 0 -5 -11 -10 -25 -10
-14 0 -33 -4 -43 -9 -65 -33 -70 -34 -87 -17 -15 14 -15 18 -1 31 8 8 19 15
25 15 6 0 42 32 81 70 39 39 75 70 80 70 6 0 10 7 10 15 0 8 4 15 8 15 5 0 21
27 37 61 25 50 31 58 41 45 6 -9 17 -16 23 -16 17 0 41 26 41 43 0 9 3 17 8
19 4 2 17 15 29 30 14 19 22 24 26 15 7 -18 -3 -67 -14 -67 -5 0 -9 -9 -9 -19
0 -11 -4 -23 -10 -26 -5 -3 -10 -15 -10 -26 0 -10 -4 -19 -10 -19 -5 0 -10 -4
-10 -10 0 -5 9 -10 20 -10 11 0 20 5 20 10 0 6 5 10 12 10 22 0 76 70 83 108
4 20 9 81 12 135 2 53 9 97 14 97 5 0 9 14 9 30 0 23 -4 30 -20 30 -11 0 -20
-4 -20 -10 0 -5 -9 -10 -20 -10 -11 0 -20 -4 -20 -10 0 -5 -5 -10 -10 -10 -16
0 -80 -68 -80 -85 0 -8 -4 -15 -8 -15 -5 0 -14 -16 -22 -35 -13 -33 -33 -45
-44 -26 -7 11 11 112 30 170 16 47 15 56 -2 37z m-44 -2185 c0 -4 16 -13 35
-20 42 -15 48 -47 11 -57 -39 -9 -59 -1 -76 31 -8 17 -19 33 -24 36 -5 4 -6
11 -3 17 7 10 57 4 57 -7z"/>
<path d="M6180 5250 c0 -5 -16 -10 -35 -10 -19 0 -35 -4 -35 -10 0 -5 -7 -10
-15 -10 -8 0 -15 -4 -15 -10 0 -5 -8 -10 -17 -10 -24 -1 -105 -85 -132 -137
-39 -77 -20 -121 31 -73 12 11 28 20 35 20 7 0 13 5 13 10 0 6 6 10 13 10 7 0
19 9 27 20 17 24 30 26 30 5 0 -9 -31 -48 -70 -87 -38 -39 -70 -75 -70 -80 0
-12 58 -10 65 2 3 6 14 10 23 10 17 0 72 41 72 54 0 4 9 16 20 28 11 12 20 28
20 35 0 7 4 13 9 13 5 0 22 32 37 71 16 38 37 79 47 89 9 11 17 31 17 45 0 22
-4 25 -35 25 -19 0 -35 -4 -35 -10z"/>
<path d="M5540 5230 c0 -5 -5 -10 -11 -10 -14 0 -117 -110 -125 -132 -3 -10
-9 -18 -13 -18 -11 0 -31 -47 -31 -75 0 -13 -4 -27 -10 -30 -16 -10 -12 -102
5 -119 21 -20 42 -11 48 22 3 15 15 38 26 51 12 13 21 30 21 36 0 14 25 27 34
18 10 -10 7 -73 -4 -73 -5 0 -10 -8 -10 -19 0 -10 -9 -30 -20 -44 -11 -14 -20
-37 -20 -51 0 -24 1 -25 28 -13 35 15 92 72 92 91 0 8 5 18 10 21 6 3 10 34
10 68 0 34 4 77 10 96 6 22 6 40 -1 53 -7 12 -7 24 -1 31 5 7 13 33 16 60 l7
47 -30 0 c-17 0 -31 -4 -31 -10z m-30 -210 c0 -5 -9 -10 -20 -10 -11 0 -20 5
-20 10 0 6 9 10 20 10 11 0 20 -4 20 -10z"/>
<path d="M3507 5203 c-15 -55 -16 -97 -2 -159 19 -81 32 -104 93 -163 32 -31
47 -40 52 -30 10 14 1 80 -11 94 -14 14 -11 57 3 53 16 -6 43 -52 64 -113 9
-27 19 -44 21 -37 3 6 11 12 19 12 8 0 14 6 15 13 0 6 5 2 11 -10 6 -13 15
-23 20 -23 4 0 8 -16 8 -36 0 -35 -1 -36 -32 -31 -57 8 -138 31 -138 39 0 5
-7 8 -15 8 -9 0 -30 15 -48 33 -31 31 -87 110 -87 122 0 14 -29 35 -35 25 -3
-5 -1 -10 4 -10 6 0 11 -7 11 -15 0 -15 38 -101 55 -123 37 -49 81 -83 130
-101 31 -12 62 -21 70 -21 8 0 17 -4 20 -10 3 -5 15 -10 26 -10 10 0 19 -4 19
-10 0 -5 9 -10 20 -10 11 0 20 -4 20 -10 0 -5 14 -10 30 -10 17 0 30 -4 30
-10 0 -5 5 -10 10 -10 10 0 34 -20 112 -92 17 -16 34 -28 39 -28 5 0 9 -5 9
-11 0 -6 7 -17 15 -25 8 -9 15 -25 15 -36 0 -21 2 -21 -92 -1 -16 3 -28 9 -28
14 0 5 -11 9 -25 9 -14 0 -25 5 -25 10 0 6 -9 10 -20 10 -11 0 -20 4 -20 8 0
5 -19 15 -42 22 -24 8 -45 17 -48 20 -16 20 -206 100 -235 100 -19 0 -35 5
-35 10 0 6 -20 10 -45 10 -25 0 -45 -4 -45 -10 0 -5 -23 -10 -50 -10 -28 0
-58 -4 -68 -9 -34 -19 -112 -31 -196 -31 -51 0 -86 -4 -86 -10 0 -14 233 -13
247 1 16 16 275 17 281 1 2 -7 10 -12 18 -12 8 0 37 -11 65 -26 47 -23 50 -27
44 -55 -6 -26 -4 -29 19 -29 14 0 26 -4 26 -10 0 -5 18 -10 40 -10 22 0 40 -4
40 -9 0 -9 37 -19 108 -28 23 -3 42 -9 42 -13 0 -5 19 -11 43 -15 23 -3 53
-10 67 -15 14 -5 37 -11 51 -14 14 -3 35 -14 47 -24 21 -18 22 -28 22 -151 0
-74 -4 -131 -9 -131 -5 0 -12 -44 -15 -97 -14 -243 -16 -263 -35 -263 -13 0
-21 14 -30 56 -16 72 -39 111 -73 127 -16 6 -28 15 -28 19 0 5 -16 8 -35 8
-19 0 -35 5 -35 10 0 6 -7 10 -15 10 -8 0 -15 -4 -15 -10 0 -5 -16 -10 -35
-10 -19 0 -35 -4 -35 -10 0 -5 -7 -10 -16 -10 -9 0 -31 -17 -49 -37 -51 -57
-60 -153 -14 -153 10 0 19 5 19 10 0 6 9 10 20 10 11 0 20 5 20 10 0 6 9 10
20 10 11 0 20 -4 20 -10 0 -5 20 -10 45 -10 25 0 45 5 45 10 0 15 29 12 46 -4
16 -17 20 -156 4 -156 -5 0 -10 -9 -10 -20 0 -11 -4 -20 -10 -20 -5 0 -10 -8
-10 -17 -1 -10 -21 -38 -45 -63 -49 -49 -56 -70 -25 -70 22 0 70 -41 70 -60 0
-15 -21 -48 -53 -83 l-28 -30 -87 28 c-48 16 -91 33 -97 37 -5 4 -19 8 -32 8
-13 0 -23 5 -23 10 0 6 -9 10 -19 10 -11 0 -23 5 -26 10 -3 6 -17 10 -31 10
-13 0 -24 5 -24 10 0 6 -5 10 -10 10 -16 0 -60 47 -60 64 0 30 -73 62 -82 35
-2 -6 -32 -13 -66 -16 -69 -6 -77 -18 -39 -58 41 -45 47 -54 47 -78 0 -13 -13
-38 -30 -55 -27 -28 -29 -36 -23 -77 4 -30 2 -45 -6 -45 -6 0 -11 -8 -11 -18
0 -22 -39 -42 -83 -42 -20 0 -40 -9 -54 -24 -20 -20 -33 -24 -94 -24 -40 -1
-77 -6 -82 -11 -6 -6 -18 -11 -27 -11 -8 0 -22 -9 -30 -20 -18 -24 -36 -25
-58 -3 -12 12 -13 18 -4 21 6 2 12 12 12 22 0 14 -11 19 -52 23 -59 5 -78 -4
-78 -39 0 -13 -4 -24 -10 -24 -5 0 -10 -9 -10 -20 0 -11 -4 -20 -10 -20 -5 0
-10 -11 -10 -25 0 -14 -4 -25 -10 -25 -5 0 -10 -11 -10 -24 0 -14 -4 -28 -10
-31 -5 -3 -10 -15 -10 -26 0 -10 -4 -19 -10 -19 -5 0 -10 -13 -10 -30 0 -16 2
-30 5 -30 12 0 55 24 55 32 0 4 9 8 20 8 11 0 20 5 20 10 0 6 9 10 20 10 11 0
20 5 20 10 0 6 11 10 25 10 14 0 25 4 25 9 0 5 10 11 23 14 12 3 58 19 102 36
44 17 90 31 103 31 12 0 22 4 22 9 0 9 40 18 123 27 26 3 47 10 47 15 0 5 23
9 50 9 28 0 50 5 50 10 0 6 45 10 115 10 70 0 115 4 115 10 0 6 35 10 85 10
50 0 85 -4 85 -10 0 -6 37 -10 90 -10 53 0 90 -4 90 -10 0 -5 14 -10 32 -10
17 0 58 -9 90 -21 l59 -21 20 23 c10 12 19 29 19 37 0 13 21 66 41 104 5 10 9
29 9 43 0 14 5 25 10 25 6 0 10 18 10 40 0 22 5 40 10 40 6 0 10 18 10 39 0
22 4 42 9 45 16 10 26 164 21 351 -8 321 -5 576 8 640 25 119 25 120 0 159
-12 19 -29 36 -36 36 -13 0 -42 23 -42 34 0 9 -90 90 -118 106 -30 17 -50 36
-107 101 -86 98 -115 149 -115 204 0 19 -4 35 -10 35 -5 0 -10 25 -10 55 0 30
-4 55 -10 55 -5 0 -10 -18 -10 -39 0 -26 -5 -41 -16 -45 -21 -8 -29 -2 -44 34
-7 16 -19 30 -26 30 -8 0 -14 4 -14 9 0 13 -144 161 -157 161 -7 0 -14 -8 -16
-17z m356 -2140 c-12 -32 -32 -45 -58 -39 -32 8 -34 43 -2 49 52 10 67 8 60
-10z"/>
<path d="M2503 5185 c-14 -16 -18 -155 -5 -170 4 -6 14 -28 22 -50 20 -60 101
-165 127 -165 7 0 13 -4 13 -8 0 -10 45 -32 64 -32 11 0 11 8 3 40 -6 22 -15
40 -19 40 -4 0 -8 9 -8 20 0 11 -4 20 -10 20 -5 0 -10 9 -10 20 0 11 -4 20
-10 20 -5 0 -10 9 -10 21 0 15 4 19 16 15 9 -3 18 -6 20 -6 2 0 4 -5 4 -10 0
-6 10 -21 23 -34 12 -12 33 -45 46 -74 16 -35 30 -52 43 -52 15 0 18 9 18 60
0 33 -4 60 -10 60 -5 0 -10 8 -10 18 0 17 -79 112 -93 112 -4 0 -26 18 -50 40
-68 63 -144 130 -148 130 -2 -1 -10 -7 -16 -15z"/>
<path d="M2830 5086 c0 -20 5 -36 10 -36 6 0 10 -11 10 -25 0 -14 5 -25 10
-25 6 0 10 -14 10 -30 0 -17 4 -38 9 -48 5 -9 19 -43 31 -75 27 -68 74 -137
95 -137 8 0 15 -4 15 -10 0 -5 9 -10 20 -10 11 0 20 -4 20 -10 0 -5 11 -10 25
-10 29 0 31 9 8 38 -47 55 -53 63 -53 73 0 7 -8 19 -18 28 -18 15 -42 53 -42
65 0 22 41 -3 89 -54 32 -33 63 -60 71 -60 19 0 7 96 -20 152 -22 48 -100 138
-119 138 -6 0 -11 4 -11 8 0 13 -80 50 -122 58 l-38 6 0 -36z"/>
<path d="M3106 5073 c-4 -9 -3 -19 2 -22 14 -9 82 -140 82 -157 0 -8 5 -14 10
-14 6 0 10 -8 10 -18 0 -10 9 -24 20 -32 11 -8 20 -19 20 -26 0 -18 88 -94
109 -94 12 0 21 -4 21 -10 0 -5 14 -10 30 -10 37 0 41 28 8 50 -12 8 -41 35
-65 59 -43 45 -56 81 -28 81 8 0 15 -4 15 -10 0 -5 6 -10 14 -10 8 0 18 -9 21
-20 3 -11 14 -20 23 -20 10 0 24 -9 32 -20 23 -31 50 -26 50 10 0 17 -4 30
-10 30 -5 0 -10 9 -10 20 0 11 -4 20 -10 20 -5 0 -10 9 -10 20 0 11 -4 20 -10
20 -5 0 -10 5 -10 11 0 16 -89 99 -106 99 -8 0 -14 5 -14 10 0 6 -7 10 -15 10
-8 0 -15 5 -15 10 0 6 -15 10 -34 10 -19 0 -38 5 -41 10 -11 17 -82 12 -89 -7z"/>
<path d="M3420 5020 c0 -5 5 -10 10 -10 6 0 10 5 10 10 0 6 -4 10 -10 10 -5 0
-10 -4 -10 -10z"/>
<path d="M3610 4510 c0 -5 5 -10 10 -10 6 0 10 5 10 10 0 6 -4 10 -10 10 -5 0
-10 -4 -10 -10z"/>
<path d="M3480 4150 c0 -6 -32 -10 -75 -10 -43 0 -75 -4 -75 -10 0 -6 -27 -10
-60 -10 -33 0 -60 -4 -60 -10 0 -5 -7 -10 -16 -10 -17 0 -44 -23 -44 -38 0 -5
-16 -44 -35 -86 -19 -43 -35 -84 -35 -92 0 -7 -4 -14 -10 -14 -5 0 -10 -9 -10
-20 0 -11 -4 -20 -10 -20 -5 0 -10 -13 -10 -30 0 -16 -4 -30 -10 -30 -5 0 -10
-11 -10 -25 0 -14 -4 -25 -10 -25 -5 0 -10 -8 -10 -18 0 -10 -4 -22 -8 -27 -8
-10 -50 -108 -89 -207 -10 -27 -21 -48 -25 -48 -5 0 -8 -13 -8 -30 0 -16 -4
-30 -10 -30 -5 0 -10 -9 -10 -20 0 -11 -4 -20 -10 -20 -5 0 -10 -9 -10 -20 0
-11 -4 -20 -10 -20 -5 0 -10 -8 -10 -18 0 -10 -9 -37 -20 -60 -11 -22 -20 -44
-20 -47 0 -3 9 -5 20 -5 11 0 20 -4 20 -10 0 -5 16 -10 35 -10 30 0 35 4 40
28 3 15 12 47 21 72 8 25 38 115 67 200 28 85 55 157 59 158 4 2 8 19 8 38 0
19 4 34 8 34 4 0 14 21 21 48 8 26 17 52 21 57 4 6 10 21 13 35 12 58 85 249
100 264 10 10 33 16 61 16 25 0 46 5 46 10 0 6 25 10 55 10 30 0 55 4 55 9 0
9 25 12 250 35 l135 13 -162 2 c-103 0 -163 -3 -163 -9z"/>
<path d="M5120 4144 c80 -7 180 -16 223 -20 42 -4 77 -11 77 -15 0 -5 34 -9
75 -9 43 0 75 -4 75 -10 0 -5 17 -10 38 -10 47 0 92 -36 92 -74 0 -14 5 -26
10 -26 6 0 10 -15 10 -34 0 -19 4 -36 8 -38 5 -1 22 -46 40 -98 60 -182 87
-255 95 -258 4 -2 7 -17 7 -33 0 -16 5 -29 10 -29 6 0 10 -13 10 -30 0 -16 5
-30 10 -30 6 0 10 -15 10 -34 0 -19 3 -36 8 -38 9 -4 62 -161 62 -183 0 -26
26 -45 60 -45 17 0 38 6 46 14 16 17 19 46 4 46 -5 0 -10 14 -10 30 0 17 -4
30 -10 30 -5 0 -10 9 -10 19 0 11 -4 23 -10 26 -5 3 -10 15 -10 26 0 10 -4 19
-10 19 -5 0 -10 6 -10 14 0 7 -16 48 -35 90 -19 43 -35 84 -35 92 0 7 -4 14
-10 14 -5 0 -10 9 -10 20 0 11 -4 20 -10 20 -5 0 -10 11 -10 25 0 14 -4 25
-10 25 -5 0 -10 14 -10 30 0 17 -4 30 -10 30 -5 0 -10 9 -10 20 0 11 -4 20
-10 20 -5 0 -10 8 -10 18 0 10 -4 22 -8 28 -5 5 -16 28 -25 51 -19 49 -54 130
-68 155 -5 10 -9 25 -9 33 0 8 -4 15 -10 15 -5 0 -10 7 -10 16 0 22 -25 44
-49 44 -12 0 -21 5 -21 10 0 6 -27 10 -60 10 -33 0 -60 4 -60 9 0 11 -136 20
-380 25 l-175 4 145 -14z"/>
<path d="M4956 3932 c-76 -10 -141 -165 -104 -247 6 -14 14 -25 18 -25 14 0
30 25 30 48 0 13 6 30 14 38 17 16 62 19 71 4 10 -17 50 -11 73 10 19 18 25
19 44 9 13 -7 30 -20 39 -31 29 -33 49 -23 49 25 0 43 -18 97 -32 97 -5 0 -8
5 -8 11 0 15 -26 39 -43 39 -9 0 -17 4 -19 8 -4 11 -91 20 -132 14z"/>
<path d="M5503 3633 c-7 -2 -13 -13 -13 -22 0 -18 -38 -41 -67 -41 -20 0 -53
-38 -53 -62 0 -35 47 -22 96 27 24 25 49 45 54 45 6 0 10 14 10 30 0 30 -4 33
-27 23z"/>
<path d="M3360 3600 c0 -19 5 -30 13 -29 20 3 47 -12 47 -27 0 -8 6 -14 14
-14 8 0 18 -9 21 -20 5 -15 15 -20 42 -20 34 0 35 1 30 30 -5 22 -3 30 8 30 8
0 15 5 15 10 0 14 -27 12 -33 -2 -3 -10 -9 -10 -26 0 -11 6 -26 12 -32 12 -6
0 -24 14 -39 30 -37 40 -60 39 -60 0z"/>
<path d="M3584 3575 c8 -8 17 -15 20 -15 3 0 6 7 6 15 0 9 -9 15 -21 15 -18 0
-19 -2 -5 -15z"/>
<path d="M5300 3580 c0 -13 11 -13 30 0 12 8 11 10 -7 10 -13 0 -23 -4 -23
-10z"/>
<path d="M3342 3525 c0 -16 2 -22 5 -12 2 9 2 23 0 30 -3 6 -5 -1 -5 -18z"/>
<path d="M3610 3520 c0 -5 5 -10 10 -10 6 0 10 5 10 10 0 6 -4 10 -10 10 -5 0
-10 -4 -10 -10z"/>
<path d="M3360 3480 c0 -5 5 -10 10 -10 6 0 10 5 10 10 0 6 -4 10 -10 10 -5 0
-10 -4 -10 -10z"/>
<path d="M3630 3380 c0 -21 33 -29 45 -10 3 6 -1 10 -9 10 -9 0 -16 5 -16 10
0 6 -4 10 -10 10 -5 0 -10 -9 -10 -20z"/>
<path d="M5236 3384 c-8 -21 -1 -28 18 -21 9 4 13 13 10 22 -8 20 -20 19 -28
-1z"/>
<path d="M5186 3374 c-18 -18 -21 -34 -6 -34 6 0 10 5 10 10 0 6 7 10 15 10
17 0 20 16 6 25 -5 3 -17 -2 -25 -11z"/>
<path d="M3690 3370 c0 -5 7 -10 15 -10 8 0 15 -5 15 -12 0 -6 2 -9 5 -6 3 3
3 13 -1 22 -7 17 -34 22 -34 6z"/>
<path d="M5530 2639 c0 -6 7 -17 16 -26 14 -14 16 -14 29 3 10 14 10 21 2 26
-18 11 -47 9 -47 -3z"/>
<path d="M3380 2590 c-20 -24 -33 -29 -67 -30 -24 0 -43 -4 -43 -10 0 -5 -8
-10 -17 -10 -10 0 -25 -5 -33 -10 -13 -9 -13 -11 0 -20 10 -6 11 -10 3 -10
-17 0 -16 -18 1 -36 19 -18 26 -18 26 1 0 10 10 15 28 15 34 0 47 9 56 38 4
12 14 22 22 22 8 0 14 5 14 10 0 6 7 10 15 10 8 0 15 5 15 10 0 6 9 10 20 10
13 0 20 7 20 20 0 30 -31 24 -60 -10z"/>
<path d="M4395 2480 c-3 -5 -19 -10 -36 -10 -16 0 -29 -4 -29 -10 0 -5 -8 -10
-18 -10 -10 0 -28 -9 -40 -20 -12 -11 -26 -20 -32 -20 -15 0 -40 -25 -40 -40
0 -7 -13 -25 -30 -40 -16 -15 -30 -37 -30 -49 0 -12 -3 -21 -8 -21 -4 0 -13
-18 -20 -40 -14 -48 -16 -190 -2 -190 6 0 10 -13 10 -30 0 -16 5 -30 10 -30 6
0 10 -9 10 -20 0 -11 5 -20 10 -20 6 0 10 -7 10 -15 0 -8 5 -15 10 -15 6 0 10
-5 10 -10 0 -13 57 -70 70 -70 6 0 10 -3 10 -7 0 -10 49 -33 71 -33 10 0 19
-5 21 -12 5 -15 241 -15 246 1 2 6 12 11 23 11 10 0 19 5 19 10 0 6 7 10 15
10 8 0 15 5 15 10 0 6 7 10 15 10 8 0 15 5 15 10 0 6 5 10 11 10 14 0 39 25
39 39 0 6 5 11 10 11 6 0 10 7 10 15 0 8 3 15 8 15 9 0 32 49 32 71 0 10 5 19
11 21 29 10 6 258 -23 258 -4 0 -8 9 -8 20 0 11 -4 20 -10 20 -5 0 -10 7 -10
15 0 8 -4 15 -10 15 -5 0 -10 5 -10 10 0 14 -46 60 -59 60 -5 0 -11 3 -13 8
-5 11 -88 50 -133 61 -51 14 -142 14 -150 1z m142 -21 c35 -6 63 -15 63 -20 0
-5 9 -9 20 -9 11 0 25 -9 32 -20 7 -11 21 -20 30 -20 10 0 18 -4 18 -10 0 -5
15 -24 33 -42 17 -18 38 -47 46 -63 7 -17 17 -38 22 -47 4 -9 11 -46 15 -82 5
-51 3 -77 -11 -113 -29 -80 -40 -103 -47 -103 -5 0 -8 -5 -8 -10 0 -14 -66
-80 -80 -80 -5 0 -10 -4 -10 -10 0 -5 -7 -10 -15 -10 -8 0 -15 -4 -15 -10 0
-5 -11 -10 -25 -10 -14 0 -25 -4 -25 -10 0 -14 -182 -13 -230 2 -22 7 -40 16
-40 20 0 5 -9 8 -20 8 -11 0 -20 5 -20 10 0 6 -5 10 -10 10 -16 0 -80 68 -80
85 0 8 -4 15 -10 15 -5 0 -10 7 -10 15 0 8 -4 15 -9 15 -9 0 -15 26 -29 125
-7 50 13 156 30 163 4 2 8 12 8 23 0 10 5 19 10 19 6 0 10 5 10 10 0 16 88
100 105 100 8 0 15 4 15 9 0 10 69 38 110 44 46 8 63 7 127 -4z"/>
<path d="M4420 2286 c0 -58 -4 -107 -9 -110 -4 -3 -41 -6 -82 -7 -125 -2 -129
-3 -129 -55 l0 -44 105 0 c122 0 113 10 118 -135 l2 -90 45 0 45 0 5 110 5
110 103 3 c82 2 102 6 102 17 0 8 5 15 10 15 6 0 10 13 10 29 0 26 -4 29 -46
35 -25 3 -70 3 -100 0 -75 -9 -84 2 -84 109 0 112 -2 117 -56 117 l-44 0 0
-104z"/>
<path d="M4312 2313 c-16 -6 -43 -58 -35 -67 24 -24 76 10 71 46 -3 23 -15 30
-36 21z"/>
<path d="M4598 2293 c6 -36 20 -53 43 -53 27 0 24 32 -4 58 -32 30 -45 28 -39
-5z"/>
<path d="M4270 1983 c0 -16 16 -30 38 -37 19 -6 22 -4 22 18 0 22 -4 26 -30
26 -16 0 -30 -3 -30 -7z"/>
<path d="M4600 1960 c0 -16 5 -30 10 -30 6 0 10 5 10 10 0 6 5 10 11 10 11 0
39 24 39 34 0 3 -16 6 -35 6 -32 0 -35 -2 -35 -30z"/>
<path d="M5806 2453 c-11 -11 -6 -23 9 -23 8 0 15 4 15 9 0 13 -16 22 -24 14z"/>
<path d="M3130 2400 c0 -5 5 -10 10 -10 6 0 10 5 10 10 0 6 -4 10 -10 10 -5 0
-10 -4 -10 -10z"/>
<path d="M5791 2403 c-1 -7 -8 -13 -16 -13 -9 0 -25 -9 -37 -20 -12 -11 -16
-20 -10 -20 7 0 12 -9 12 -19 0 -26 7 -29 75 -37 43 -5 56 -4 51 4 -4 7 -16
12 -27 12 -11 0 -27 7 -35 15 -14 13 -14 16 -1 21 9 3 24 1 36 -5 24 -13 111
-15 111 -2 0 15 -56 32 -96 29 -33 -3 -41 1 -51 22 -6 14 -12 19 -12 13z"/>
<path d="M2875 2350 c-3 -10 -16 -22 -27 -26 -32 -10 -1 -23 40 -17 36 6 41
21 13 45 -19 16 -20 16 -26 -2z"/>
<path d="M5268 2333 c6 -2 18 -2 25 0 6 3 1 5 -13 5 -14 0 -19 -2 -12 -5z"/>
<path d="M3498 2293 c7 -3 16 -2 19 1 4 3 -2 6 -13 5 -11 0 -14 -3 -6 -6z"/>
<path d="M5748 2233 c6 -2 12 -11 12 -19 0 -8 3 -14 8 -14 4 0 15 -14 24 -30
17 -29 12 -40 -8 -20 -12 12 -44 3 -44 -11 0 -5 -11 -7 -24 -3 -14 3 -33 1
-43 -5 -13 -7 1 -10 60 -9 46 0 83 -4 90 -11 6 -6 19 -11 29 -11 17 0 16 2 -2
33 -21 34 -26 67 -10 67 6 0 10 5 10 10 0 6 -13 10 -29 10 -17 0 -33 5 -36 10
-3 6 -16 10 -28 9 -12 0 -16 -3 -9 -6z"/>
<path d="M5313 2205 c-21 -23 -16 -65 7 -65 11 0 20 5 20 10 0 6 6 10 14 10 8
0 17 7 20 16 9 23 8 24 -14 24 -11 0 -20 5 -20 10 0 14 -13 12 -27 -5z"/>
<path d="M5890 2200 c0 -13 7 -20 20 -20 13 0 20 7 20 20 0 13 -7 20 -20 20
-13 0 -20 -7 -20 -20z"/>
<path d="M4920 2170 c0 -5 9 -10 20 -10 11 0 20 5 20 10 0 6 -9 10 -20 10 -11
0 -20 -4 -20 -10z"/>
<path d="M5015 2170 c-4 -6 7 -10 24 -10 17 0 31 5 31 10 0 6 -11 10 -24 10
-14 0 -28 -4 -31 -10z"/>
<path d="M5024 2099 c-3 -5 -16 -9 -29 -9 -33 0 -55 -10 -55 -25 0 -7 -6 -15
-12 -17 -21 -7 17 -38 46 -38 14 0 26 -4 26 -10 0 -5 7 -10 16 -10 13 0 15 7
9 36 -7 41 3 53 45 54 14 0 33 7 43 14 16 12 12 14 -33 14 -28 0 -53 -4 -56
-9z"/>
<path d="M5510 2101 c0 -5 -8 -12 -17 -15 -10 -3 10 -4 44 -2 33 2 69 9 80 15
14 8 5 10 -44 11 -35 0 -63 -4 -63 -9z"/>
<path d="M3980 2010 c-8 -11 -25 -20 -37 -20 -15 0 -23 -6 -23 -18 0 -9 -9
-23 -20 -30 -13 -8 -20 -23 -20 -41 0 -17 -4 -33 -10 -36 -15 -9 -12 -25 4
-25 22 0 62 41 69 71 4 17 18 31 37 39 40 17 56 45 36 65 -19 19 -19 19 -36
-5z"/>
<path d="M3210 1960 c0 -5 5 -10 10 -10 6 0 10 5 10 10 0 6 -4 10 -10 10 -5 0
-10 -4 -10 -10z"/>
<path d="M4900 1950 c0 -11 5 -20 10 -20 6 0 10 9 10 20 0 11 -4 20 -10 20 -5
0 -10 -9 -10 -20z"/>
<path d="M5020 1965 c0 -6 11 -20 38 -50 8 -9 24 -12 48 -8 20 3 39 2 43 -3
13 -19 61 -44 85 -44 14 0 31 -9 40 -22 20 -28 20 -38 1 -38 -8 0 -15 5 -15
10 0 6 -9 10 -20 10 -11 0 -20 -4 -20 -10 0 -5 -20 -10 -45 -10 -25 0 -45 5
-45 10 0 6 -16 10 -36 10 -35 0 -49 10 -104 78 -18 21 -30 13 -30 -19 0 -22 5
-32 20 -36 11 -3 20 -9 20 -14 0 -5 5 -9 11 -9 16 0 79 -71 73 -82 -4 -5 -17
-7 -30 -4 -15 4 -26 1 -32 -10 -7 -12 -18 -15 -43 -12 -35 6 -109 -19 -109
-36 0 -14 134 4 146 20 17 21 96 29 125 13 13 -8 40 -14 59 -14 29 0 36 -4 38
-22 7 -52 46 -3 40 50 -3 36 1 37 95 19 45 -8 47 -8 47 15 0 18 -5 23 -25 23
-29 0 -75 40 -75 65 0 9 9 15 26 15 27 0 43 -12 62 -45 6 -11 12 -14 12 -7 0
6 7 12 15 12 17 0 20 17 4 22 -17 6 2 38 23 38 18 0 48 -21 48 -34 0 -3 -9 -6
-20 -6 -13 0 -20 -7 -20 -20 0 -11 4 -20 8 -20 4 0 14 9 22 20 16 22 60 27 60
8 0 -7 10 4 22 25 12 20 28 37 34 37 27 0 64 24 64 42 0 32 -79 17 -103 -19
-5 -9 -56 -11 -195 -7 -198 4 -272 11 -272 23 0 4 -17 15 -38 24 -41 18 -52
20 -52 12z m213 -235 c-7 -25 -22 -26 -39 -3 -8 13 -9 22 -2 30 16 19 47 -2
41 -27z"/>
<path d="M3490 1917 c0 -9 11 -12 38 -8 34 4 35 5 12 12 -39 11 -50 10 -50 -4z"/>
<path d="M4880 1895 c1 -26 2 -28 11 -12 8 14 8 22 0 30 -8 8 -11 3 -11 -18z"/>
<path d="M3210 1895 c0 -8 5 -15 10 -15 6 0 10 7 10 15 0 8 -4 15 -10 15 -5 0
-10 -7 -10 -15z"/>
<path d="M3430 1892 c-25 -1 -60 -4 -77 -7 -30 -5 -31 -8 -20 -25 12 -21 67
-29 67 -10 0 6 12 10 28 10 31 0 56 13 51 26 -2 5 -24 8 -49 6z"/>
<path d="M3270 1850 c0 -5 5 -10 10 -10 6 0 10 5 10 10 0 6 -4 10 -10 10 -5 0
-10 -4 -10 -10z"/>
<path d="M4856 1844 c-9 -22 -8 -24 9 -24 10 0 15 -10 15 -30 0 -33 21 -40 46
-16 24 25 17 46 -16 46 -23 0 -30 4 -30 20 0 24 -15 27 -24 4z"/>
<path d="M3780 1830 c0 -5 9 -10 20 -10 11 0 20 5 20 10 0 6 -9 10 -20 10 -11
0 -20 -4 -20 -10z"/>
<path d="M3930 1810 c0 -5 -9 -10 -20 -10 -11 0 -20 -6 -20 -14 0 -16 38 -10
58 10 16 17 15 24 -3 24 -8 0 -15 -4 -15 -10z"/>
<path d="M3553 1768 c-13 -6 -23 -20 -23 -32 0 -17 2 -18 10 -6 6 9 23 14 49
13 45 -2 48 1 27 23 -17 16 -32 17 -63 2z"/>
<path d="M4788 1766 c-10 -7 -18 -20 -18 -29 0 -17 -20 -27 -55 -27 -12 0 -25
-6 -28 -14 -6 -15 12 -26 44 -26 10 0 19 -4 19 -10 0 -5 22 -10 49 -10 28 0
53 5 56 10 3 6 0 10 -7 10 -8 0 -24 7 -36 16 -18 12 -20 19 -12 29 6 8 10 25
8 39 -3 22 -5 23 -20 12z"/>
<path d="M4115 1751 c-6 -20 -66 -61 -88 -61 -7 0 -19 -9 -27 -20 -8 -11 -20
-20 -26 -20 -7 0 -15 -7 -18 -16 -9 -23 -8 -24 14 -24 13 0 20 7 20 20 0 16 7
20 38 20 54 0 85 18 110 64 17 31 19 41 10 48 -20 12 -26 10 -33 -11z"/>
<path d="M3380 1751 c0 -5 7 -12 16 -15 22 -9 24 -8 24 9 0 8 -9 15 -20 15
-11 0 -20 -4 -20 -9z"/>
<path d="M3480 1695 c7 -8 16 -15 21 -15 5 0 6 7 3 15 -4 8 -13 15 -21 15 -13
0 -13 -3 -3 -15z"/>
<path d="M3582 1690 c-18 -11 -42 -20 -53 -20 -11 0 -17 -4 -14 -10 3 -5 26
-10 51 -10 32 0 44 4 44 15 0 8 5 15 10 15 6 0 10 7 10 15 0 20 -8 19 -48 -5z"/>
<path d="M4168 1683 c6 -2 12 -9 12 -14 0 -20 50 -59 75 -59 28 0 55 20 55 42
0 21 -49 38 -104 37 -28 0 -45 -3 -38 -6z"/>
<path d="M3671 1653 c1 -10 4 -29 8 -43 l7 -25 6 29 c6 32 1 56 -13 56 -5 0
-9 -8 -8 -17z"/>
<path d="M3780 1660 c0 -5 7 -10 16 -10 14 0 44 -22 44 -33 0 -6 -73 -34 -105
-40 -11 -3 3 -5 30 -6 40 -1 54 3 65 19 9 13 26 20 47 20 26 0 33 4 33 20 0
15 -7 20 -29 20 -17 0 -33 5 -36 10 -3 6 -19 10 -36 10 -16 0 -29 -4 -29 -10z"/>
<path d="M4616 1634 c-9 -23 -8 -24 15 -24 12 0 36 -17 54 -37 31 -35 34 -36
50 -20 12 13 34 17 91 17 43 0 74 -4 74 -10 0 -15 49 -12 66 4 8 8 14 18 14
22 0 4 -47 4 -104 0 -102 -7 -104 -7 -129 18 -15 14 -38 26 -52 26 -14 0 -25
5 -25 10 0 16 -47 11 -54 -6z"/>
<path d="M4370 1605 c0 -14 3 -25 8 -25 4 0 13 -9 20 -21 20 -32 -1 -52 -49
-44 -30 5 -42 2 -58 -14 -12 -12 -32 -21 -46 -21 -14 0 -25 -4 -25 -10 0 -6
32 -10 75 -10 43 0 75 4 75 10 0 6 12 10 26 10 20 0 25 -4 20 -16 -3 -9 -6
-18 -6 -20 0 -2 -13 -4 -30 -4 -23 0 -30 -4 -30 -20 0 -15 7 -20 24 -20 14 0
28 5 31 10 3 6 19 10 36 10 28 0 29 2 29 43 0 42 -26 87 -50 87 -6 0 -10 18
-10 40 0 33 -3 40 -20 40 -15 0 -20 -7 -20 -25z"/>
<path d="M5170 1620 c0 -5 -18 -10 -40 -10 -22 0 -40 -4 -40 -10 0 -5 23 -10
50 -10 43 0 50 3 50 20 0 11 -4 20 -10 20 -5 0 -10 -4 -10 -10z"/>
<path d="M4070 1594 c0 -11 5 -14 16 -10 9 3 20 6 25 6 5 0 9 5 9 10 0 6 -11
10 -25 10 -16 0 -25 -6 -25 -16z"/>
<path d="M4480 1603 c0 -5 14 -19 31 -33 68 -56 119 -112 119 -130 0 -16 7
-20 35 -20 33 0 34 1 29 30 -5 23 -3 30 9 30 8 0 22 3 30 6 8 3 21 -2 30 -10
18 -18 43 -21 52 -6 3 6 17 10 30 10 13 0 27 5 30 10 4 6 -13 10 -45 10 -28 0
-65 7 -81 16 -21 10 -40 13 -62 8 -18 -4 -39 -7 -47 -5 -28 4 -60 24 -60 38 0
7 -4 13 -10 13 -5 0 -10 9 -10 20 0 17 -7 20 -40 20 -22 0 -40 -3 -40 -7z"/>
<path d="M3946 1525 c-4 -11 1 -15 19 -15 16 0 25 6 25 15 0 8 -9 15 -19 15
-10 0 -21 -7 -25 -15z"/>
<path d="M5010 1524 c0 -14 3 -14 15 -4 8 7 15 14 15 16 0 2 -7 4 -15 4 -8 0
-15 -7 -15 -16z"/>
<path d="M4100 1490 c20 -13 100 -13 100 0 0 6 -26 10 -57 10 -41 0 -54 -3
-43 -10z"/>
<path d="M4283 842 c-64 -79 -112 -122 -136 -122 -17 0 -45 -20 -91 -64 -36
-36 -66 -69 -66 -74 0 -6 -6 -13 -12 -15 -8 -3 -8 -6 -2 -6 10 -1 23 9 71 49
7 5 16 10 20 10 5 0 15 9 23 20 8 11 20 20 27 20 7 0 13 5 13 10 0 6 15 10 33
10 20 0 37 7 45 18 7 9 31 43 53 75 30 42 47 57 65 57 15 0 24 -6 24 -15 0 -8
5 -15 10 -15 6 0 10 -9 10 -20 0 -11 5 -20 10 -20 6 0 10 -28 10 -64 0 -63 -1
-64 -32 -75 -31 -11 -31 -11 -10 -29 11 -9 33 -26 48 -37 15 -11 33 -26 40
-32 7 -7 17 -13 23 -13 6 0 11 -4 11 -10 0 -5 7 -10 15 -10 8 0 15 -4 15 -10
0 -5 5 -10 10 -10 16 0 11 15 -15 46 -31 36 -31 48 0 68 14 9 25 22 24 29 -3
27 2 35 21 30 11 -3 20 -10 20 -15 0 -21 52 -58 97 -69 58 -14 83 -26 104 -51
21 -23 29 -23 29 0 0 10 -9 24 -20 32 -11 8 -20 20 -20 27 0 7 -4 13 -10 13
-5 0 -10 4 -10 10 0 15 -82 110 -94 110 -11 0 -56 48 -56 59 0 14 -34 23 -62
16 -16 -4 -34 2 -57 20 -19 14 -43 25 -52 25 -10 0 -29 11 -43 25 -32 32 -56
31 -83 -3z"/>
</g>
</svg>
